<svg width="25" height="24" viewBox="0 0 25 24" fill="none" xmlns="http://www.w3.org/2000/svg">
<path d="M12.797 17C13.3493 17 13.797 16.5523 13.797 16C13.797 15.4477 13.3493 15 12.797 15C12.2447 15 11.797 15.4477 11.797 16C11.797 16.5523 12.2447 17 12.797 17Z" stroke="#9AA6B6" stroke-width="2" stroke-linecap="round" stroke-linejoin="round"/>
<path d="M19.797 10H5.797C4.69243 10 3.797 10.8954 3.797 12V20C3.797 21.1046 4.69243 22 5.797 22H19.797C20.9016 22 21.797 21.1046 21.797 20V12C21.797 10.8954 20.9016 10 19.797 10Z" stroke="#9AA6B6" stroke-width="2" stroke-linecap="round" stroke-linejoin="round"/>
<path d="M7.797 10V7C7.797 5.67392 8.32378 4.40215 9.26146 3.46447C10.1991 2.52678 11.4709 2 12.797 2C14.1231 2 15.3948 2.52678 16.3325 3.46447C17.2702 4.40215 17.797 5.67392 17.797 7V10" stroke="#9AA6B6" stroke-width="2" stroke-linecap="round" stroke-linejoin="round"/>
</svg>
