<svg width="25" height="25" viewBox="0 0 25 25" fill="none" xmlns="http://www.w3.org/2000/svg">
<path fill-rule="evenodd" clip-rule="evenodd" d="M13.2071 5.0966C13.5976 5.48713 13.5976 6.12029 13.2071 6.51082L6.91421 12.8037L13.2071 19.0966C13.5976 19.4871 13.5976 20.1203 13.2071 20.5108C12.8166 20.9013 12.1834 20.9013 11.7929 20.5108L4.79289 13.5108C4.40237 13.1203 4.40237 12.4871 4.79289 12.0966L11.7929 5.0966C12.1834 4.70608 12.8166 4.70608 13.2071 5.0966Z" fill="white"/>
<path fill-rule="evenodd" clip-rule="evenodd" d="M4.5 12.8037C4.5 12.2514 4.94772 11.8037 5.5 11.8037H19.5C20.0523 11.8037 20.5 12.2514 20.5 12.8037C20.5 13.356 20.0523 13.8037 19.5 13.8037H5.5C4.94772 13.8037 4.5 13.356 4.5 12.8037Z" fill="white"/>
</svg>
