<svg width="48" height="48" viewBox="0 0 48 48" fill="none" xmlns="http://www.w3.org/2000/svg">
<rect width="48" height="48" rx="14" fill="#E44E58"/>
<g clip-path="url(#clip0_1523_33321)">
<mask id="path-2-inside-1_1523_33321" fill="white">
<path d="M35.9391 25.5055L35.7015 26.7497C35.4795 27.9148 34.3913 28.6971 33.1579 28.5783L30.7018 28.3407C29.6316 28.2375 28.7197 27.4768 28.4485 26.4618L27.6902 23.6362C26.5696 23.1762 25.3338 22.9663 23.9827 23.0063C22.6828 23.0342 21.4017 23.3226 20.2153 23.8545L19.7461 26.5002C19.5686 27.5032 18.7407 28.2507 17.6932 28.3563L15.2516 28.6011C14.0337 28.7235 12.8663 27.9484 12.5196 26.7893L12.1488 25.5451C11.7793 24.3069 12.1092 23.0039 13.0139 22.1244C15.1504 20.0487 18.7131 19.0072 23.702 19C28.6973 18.9944 32.3708 20.0295 34.7224 22.1052C35.7111 22.9787 36.1742 24.2721 35.9403 25.5055"/>
</mask>
<path d="M35.9391 25.5055L35.7015 26.7497C35.4795 27.9148 34.3913 28.6971 33.1579 28.5783L30.7018 28.3407C29.6316 28.2375 28.7197 27.4768 28.4485 26.4618L27.6902 23.6362C26.5696 23.1762 25.3338 22.9663 23.9827 23.0063C22.6828 23.0342 21.4017 23.3226 20.2153 23.8545L19.7461 26.5002C19.5686 27.5032 18.7407 28.2507 17.6932 28.3563L15.2516 28.6011C14.0337 28.7235 12.8663 27.9484 12.5196 26.7893L12.1488 25.5451C11.7793 24.3069 12.1092 23.0039 13.0139 22.1244C15.1504 20.0487 18.7131 19.0072 23.702 19C28.6973 18.9944 32.3708 20.0295 34.7224 22.1052C35.7111 22.9787 36.1742 24.2721 35.9403 25.5055" fill="white"/>
<path d="M35.7015 26.7497L34.7192 26.5622L34.7192 26.5626L35.7015 26.7497ZM33.1579 28.5783L33.0616 29.5736L33.062 29.5737L33.1579 28.5783ZM30.7018 28.3407L30.7981 27.3454L30.7978 27.3453L30.7018 28.3407ZM28.4485 26.4618L29.4146 26.2037L29.4143 26.2026L28.4485 26.4618ZM27.6902 23.6362L28.6561 23.377L28.5278 22.899L28.0699 22.7111L27.6902 23.6362ZM23.9827 23.0063L24.0042 24.0061L24.0123 24.0058L23.9827 23.0063ZM20.2153 23.8545L19.8062 22.9421L19.3231 23.1586L19.2306 23.6799L20.2153 23.8545ZM19.7461 26.5002L18.7615 26.3256L18.7615 26.3258L19.7461 26.5002ZM17.6932 28.3563L17.793 29.3513L17.7935 29.3513L17.6932 28.3563ZM15.2516 28.6011L15.1518 27.6061L15.1516 27.6061L15.2516 28.6011ZM12.5196 26.7893L11.5612 27.0749L11.5615 27.0759L12.5196 26.7893ZM12.1488 25.5451L13.1072 25.2595L13.107 25.2591L12.1488 25.5451ZM13.0139 22.1244L12.3171 21.4071L12.3168 21.4074L13.0139 22.1244ZM23.702 19L23.7009 18L23.7005 18L23.702 19ZM34.7224 22.1052L35.3845 21.3558L35.3842 21.3555L34.7224 22.1052ZM34.9568 25.318L34.7192 26.5622L36.6838 26.9373L36.9213 25.6931L34.9568 25.318ZM34.7192 26.5626C34.6006 27.1851 34.0092 27.6556 33.2537 27.5829L33.062 29.5737C34.7734 29.7385 36.3585 28.6444 36.6838 26.9369L34.7192 26.5626ZM33.2541 27.5829L30.7981 27.3454L30.6055 29.3361L33.0616 29.5736L33.2541 27.5829ZM30.7978 27.3453C30.1303 27.281 29.5748 26.8033 29.4146 26.2037L27.4824 26.7199C27.8646 28.1504 29.1328 29.1941 30.6058 29.3361L30.7978 27.3453ZM29.4143 26.2026L28.6561 23.377L26.7244 23.8954L27.4827 26.721L29.4143 26.2026ZM28.0699 22.7111C26.8053 22.192 25.428 21.963 23.9532 22.0067L24.0123 24.0058C25.2395 23.9695 26.3339 24.1604 27.3105 24.5613L28.0699 22.7111ZM23.9613 22.0065C22.5276 22.0373 21.1147 22.3554 19.8062 22.9421L20.6244 24.767C21.6887 24.2898 22.838 24.0311 24.0042 24.006L23.9613 22.0065ZM19.2306 23.6799L18.7615 26.3256L20.7308 26.6748L21.1999 24.0291L19.2306 23.6799ZM18.7615 26.3258C18.6657 26.8669 18.2172 27.2984 17.5929 27.3614L17.7935 29.3513C19.2642 29.203 20.4715 28.1396 20.7308 26.6745L18.7615 26.3258ZM17.5935 27.3613L15.1518 27.6061L15.3513 29.5961L17.793 29.3513L17.5935 27.3613ZM15.1516 27.6061C14.4033 27.6813 13.6849 27.1956 13.4776 26.5027L11.5615 27.0759C12.0477 28.7012 13.6642 29.7656 15.3516 29.5961L15.1516 27.6061ZM13.4779 26.5038L13.1072 25.2595L11.1905 25.8307L11.5612 27.0749L13.4779 26.5038ZM13.107 25.2591C12.8409 24.3673 13.081 23.4538 13.7109 22.8414L12.3168 21.4074C11.1374 22.554 10.7176 24.2464 11.1906 25.8311L13.107 25.2591ZM13.7107 22.8416C15.5693 21.036 18.8097 20.0071 23.7034 20L23.7005 18C18.6165 18.0074 14.7315 19.0614 12.3171 21.4071L13.7107 22.8416ZM23.7031 20C28.5913 19.9945 31.9737 21.0128 34.0607 22.8549L35.3842 21.3555C32.7678 19.0461 28.8032 17.9943 23.7009 18L23.7031 20ZM34.0603 22.8546C34.801 23.5089 35.122 24.4532 34.9578 25.3191L36.9227 25.6919C37.2264 24.0909 36.6212 22.4484 35.3845 21.3558L34.0603 22.8546Z" fill="white" mask="url(#path-2-inside-1_1523_33321)"/>
</g>
<defs>
<clipPath id="clip0_1523_33321">
<rect width="24" height="24" fill="white" transform="translate(12 12)"/>
</clipPath>
</defs>
</svg>
