<svg width="49" height="48" viewBox="0 0 49 48" fill="none" xmlns="http://www.w3.org/2000/svg">
<rect x="0.5" width="48" height="48" rx="14" fill="white" fill-opacity="0.12"/>
<path d="M28.5 24.9998L33.723 28.4818C33.7983 28.5319 33.8858 28.5606 33.9761 28.5649C34.0664 28.5693 34.1563 28.549 34.236 28.5063C34.3157 28.4636 34.3824 28.4001 34.4289 28.3225C34.4754 28.245 34.5 28.1562 34.5 28.0658V19.8698C34.5 19.7818 34.4768 19.6954 34.4328 19.6192C34.3887 19.5431 34.3253 19.4799 34.2491 19.4361C34.1728 19.3923 34.0863 19.3693 33.9983 19.3696C33.9103 19.3699 33.824 19.3934 33.748 19.4378L28.5 22.4998" stroke="#F5F9FA" stroke-width="2" stroke-linecap="round" stroke-linejoin="round"/>
<path d="M26.5 18H16.5C15.3954 18 14.5 18.8954 14.5 20V28C14.5 29.1046 15.3954 30 16.5 30H26.5C27.6046 30 28.5 29.1046 28.5 28V20C28.5 18.8954 27.6046 18 26.5 18Z" stroke="#F5F9FA" stroke-width="2" stroke-linecap="round" stroke-linejoin="round"/>
</svg>
