<svg width="25" height="24" viewBox="0 0 25 24" fill="none" xmlns="http://www.w3.org/2000/svg">
<path d="M12.2031 17H12.2131" stroke="#9AA6B6" stroke-width="2" stroke-linecap="round" stroke-linejoin="round"/>
<path d="M15.2031 2H6.20312C5.67269 2 5.16398 2.21071 4.78891 2.58579C4.41384 2.96086 4.20313 3.46957 4.20312 4V20C4.20313 20.5304 4.41384 21.0391 4.78891 21.4142C5.16398 21.7893 5.67269 22 6.20312 22H18.2031C18.7336 22 19.2423 21.7893 19.6173 21.4142C19.9924 21.0391 20.2031 20.5304 20.2031 20V7L15.2031 2Z" stroke="#9AA6B6" stroke-width="2" stroke-linecap="round" stroke-linejoin="round"/>
<path d="M9.30313 8.99999C9.54311 8.33862 10.0079 7.78263 10.6163 7.42921C11.2246 7.0758 11.9378 6.94745 12.6312 7.06659C13.3246 7.18573 13.9541 7.54479 14.4096 8.08099C14.8651 8.6172 15.1177 9.29644 15.1231 9.99999C15.1231 12 12.1231 13 12.1231 13" stroke="#9AA6B6" stroke-width="2" stroke-linecap="round" stroke-linejoin="round"/>
</svg>
