<svg width="25" height="24" viewBox="0 0 25 24" fill="none" xmlns="http://www.w3.org/2000/svg">
<path d="M12.797 22C18.3198 22 22.797 17.5228 22.797 12C22.797 6.47715 18.3198 2 12.797 2C7.27415 2 2.797 6.47715 2.797 12C2.797 17.5228 7.27415 22 12.797 22Z" stroke="#9AA6B6" stroke-width="2" stroke-linecap="round" stroke-linejoin="round"/>
<path d="M9.887 8.99999C10.1221 8.33166 10.5861 7.7681 11.197 7.40912C11.8078 7.05015 12.5259 6.91893 13.2242 7.0387C13.9225 7.15848 14.5558 7.52151 15.0121 8.06352C15.4683 8.60552 15.7181 9.29151 15.717 9.99999C15.717 12 12.717 13 12.717 13" stroke="#9AA6B6" stroke-width="2" stroke-linecap="round" stroke-linejoin="round"/>
<path d="M12.797 17H12.807" stroke="#9AA6B6" stroke-width="2" stroke-linecap="round" stroke-linejoin="round"/>
</svg>
