<svg width="57" height="56" viewBox="0 0 57 56" fill="none" xmlns="http://www.w3.org/2000/svg">
<rect x="0.5" width="56" height="56" rx="20" fill="#F1F4F6"/>
<path d="M38.0999 24.8476V33.4C38.0999 34.1957 37.7838 34.9587 37.2212 35.5213C36.6586 36.0839 35.8955 36.4 35.0999 36.4H21.8999C21.1043 36.4 20.3412 36.0839 19.7786 35.5213C19.216 34.9587 18.8999 34.1957 18.8999 33.4V24.8476L28.1951 30.3172C28.2874 30.3717 28.3927 30.4004 28.4999 30.4004C28.6071 30.4004 28.7124 30.3717 28.8047 30.3172L38.0999 24.8476ZM35.0999 20.8C35.8381 20.7999 36.5504 21.0719 37.1005 21.5641C37.6507 22.0563 38.0001 22.734 38.0819 23.4676L28.4999 29.104L18.9179 23.4676C18.9997 22.734 19.3491 22.0563 19.8993 21.5641C20.4494 21.0719 21.1617 20.7999 21.8999 20.8H35.0999Z" fill="#2E3946"/>
</svg>
