<svg width="18" height="17" viewBox="0 0 18 17" fill="none" xmlns="http://www.w3.org/2000/svg">
<path d="M7.52962 0.583496C6.86362 0.583496 6.24553 0.938469 5.91016 1.51367L4.99463 3.0835H3.37435C1.88604 3.0835 0.666016 4.30352 0.666016 5.79183V13.7085C0.666016 15.1968 1.88604 16.4168 3.37435 16.4168H14.6243C16.1127 16.4168 17.3327 15.1968 17.3327 13.7085V5.79183C17.3327 4.30352 16.1127 3.0835 14.6243 3.0835H13.0041L12.0885 1.51367C11.7532 0.938469 11.1351 0.583496 10.4691 0.583496H7.52962ZM7.52962 1.8335H10.4691C10.6922 1.8335 10.8965 1.95126 11.0086 2.14355L12.1056 4.02344C12.1607 4.11774 12.2394 4.19598 12.3341 4.25038C12.4287 4.30478 12.536 4.33344 12.6452 4.3335H14.6243C15.4369 4.3335 16.0827 4.9793 16.0827 5.79183V13.7085C16.0827 14.521 15.4369 15.1668 14.6243 15.1668H3.37435C2.56182 15.1668 1.91602 14.521 1.91602 13.7085V5.79183C1.91602 4.9793 2.56182 4.3335 3.37435 4.3335H5.35352C5.4627 4.33344 5.56996 4.30478 5.66462 4.25038C5.75928 4.19598 5.83804 4.11774 5.89307 4.02344L6.99007 2.14355C7.10219 1.95126 7.30645 1.8335 7.52962 1.8335ZM8.99935 5.5835C6.93568 5.5835 5.24935 7.26983 5.24935 9.3335C5.24935 11.3972 6.93568 13.0835 8.99935 13.0835C11.063 13.0835 12.7493 11.3972 12.7493 9.3335C12.7493 7.26983 11.063 5.5835 8.99935 5.5835ZM8.99935 6.8335C10.3875 6.8335 11.4993 7.94538 11.4993 9.3335C11.4993 10.7216 10.3875 11.8335 8.99935 11.8335C7.61123 11.8335 6.49935 10.7216 6.49935 9.3335C6.49935 7.94538 7.61123 6.8335 8.99935 6.8335Z" fill="white"/>
</svg>
