<svg width="335" height="234" viewBox="0 0 335 234" fill="none" xmlns="http://www.w3.org/2000/svg">
<g clip-path="url(#clip0_1385_21867)">
<rect width="335" height="234" rx="16" fill="#D7F0F2"/>
<ellipse opacity="0.56" cx="168.043" cy="116.975" rx="58.0365" ry="125.781" transform="rotate(45 168.043 116.975)" fill="url(#paint0_linear_1385_21867)"/>
<g clip-path="url(#clip1_1385_21867)">
<mask id="path-3-inside-1_1385_21867" fill="white">
<path d="M42 -17H293V234H42V-17Z"/>
</mask>
<g clip-path="url(#clip2_1385_21867)">
<rect x="90.9863" y="35.0691" width="152.912" height="331.106" rx="16.3107" fill="#F1F4F6"/>
<rect width="152.912" height="22.2593" transform="translate(90.9863 35.0691)" fill="#83D8DD"/>
<rect x="99.1416" y="67.7161" width="137.01" height="156.426" rx="6.52426" fill="white"/>
<path d="M161.108 74.2405H108.928C107.127 74.2405 105.666 75.701 105.666 77.5026V134.667C105.666 136.469 107.127 137.929 108.928 137.929H161.108C162.91 137.929 164.37 136.469 164.37 134.667V77.5026C164.37 75.701 162.91 74.2405 161.108 74.2405Z" fill="#F1F4F6"/>
<path d="M128.469 112.751C133.949 112.751 138.392 108.308 138.392 102.828C138.392 97.3474 133.949 92.9045 128.469 92.9045C122.988 92.9045 118.545 97.3474 118.545 102.828C118.545 108.308 122.988 112.751 128.469 112.751Z" fill="#F6CEB1"/>
<path d="M124.591 110.426C124.591 110.426 125.832 116.317 125.832 116.938C125.832 117.558 131.724 120.349 131.724 120.349L136.995 119.419L138.856 113.837C138.856 113.837 135.755 109.185 135.755 107.324L124.591 110.426Z" fill="#F6CEB1"/>
<path d="M119.863 94.833C119.863 94.833 123.014 88.0067 129.052 89.582C135.091 91.1573 138.504 93.5202 138.767 95.8832C139.029 98.2461 138.636 101.791 138.636 101.791C138.636 101.791 137.979 96.9334 133.778 97.9836C129.577 99.0338 123.014 98.2461 123.014 98.2461L121.964 107.698C121.964 107.698 120.782 105.991 119.469 107.042C118.157 108.092 115.662 96.9334 119.863 94.833Z" fill="#2F2E41"/>
<path d="M159.942 135.544L157.464 124.379C156.221 120.657 153.122 117.558 153.122 117.558L137.829 112.18H137.826C137.796 113.532 137.34 114.84 136.523 115.918C135.707 116.995 134.571 117.788 133.277 118.182C128.624 119.729 125.421 114.515 125.421 114.515L112.493 124.379C112.493 124.379 108.464 127.793 108.775 134.305L108.347 137.929H161.135L159.942 135.544Z" fill="#83D8DD"/>
<path d="M226.337 74.2402H174.157C172.355 74.2402 170.895 75.7007 170.895 77.5024V134.667C170.895 136.469 172.355 137.929 174.157 137.929H226.337C228.138 137.929 229.599 136.469 229.599 134.667V77.5024C229.599 75.7007 228.138 74.2402 226.337 74.2402Z" fill="#F1F4F6"/>
<path d="M211.426 137.929H191.262L190.151 126.974L190.085 126.307L189.949 124.986L189.391 119.464L188.694 125.395L187.221 137.929H183.557L183.694 134.028L183.83 130.072L183.888 128.478L184.641 106.794C184.583 103.358 185.67 99.9997 187.731 97.2494C188.875 95.7598 190.352 94.5581 192.043 93.74C193.734 92.922 195.592 92.5103 197.47 92.5377C199.387 92.5314 201.278 92.9691 202.997 93.8163C204.716 94.6635 206.215 95.8973 207.377 97.4209C209.507 100.199 210.647 103.609 210.616 107.109L210.963 120.235L211.426 137.929Z" fill="#2F2E41"/>
<path d="M197.471 114.553C202.369 114.553 206.34 110.583 206.34 105.684C206.34 100.786 202.369 96.8147 197.471 96.8147C192.573 96.8147 188.602 100.786 188.602 105.684C188.602 110.583 192.573 114.553 197.471 114.553Z" fill="#F6CEB1"/>
<path d="M193.035 112.02C193.035 112.02 195.569 120.572 193.035 123.106C190.501 125.64 189.868 126.591 189.868 126.591L197.153 136.41L209.824 120.889C209.824 120.889 200.954 118.355 203.172 111.386L193.035 112.02Z" fill="#F6CEB1"/>
<path d="M220.397 137.929H212.914L212.789 136.647L212.676 135.462L216.121 135.03L220.276 134.511L220.323 135.84L220.397 137.929Z" fill="#F6CEB1"/>
<path d="M220.91 135.777C220.91 135.777 219.642 127.858 218.692 124.69C217.742 121.522 216.792 121.522 216.792 121.522L216.791 121.522C215.673 120.403 212.984 120.204 210.961 120.236C209.543 120.251 208.451 120.376 208.451 120.376L197.153 132.294L191.463 124.729V124.725C190.951 124.765 190.443 124.853 189.947 124.986C189.52 125.095 189.101 125.232 188.692 125.396C186.93 126.149 185.306 127.191 183.887 128.478H183.883C183.065 129.215 182.581 129.757 182.581 129.757C181.328 132.362 180.384 135.105 179.768 137.929H215.973L216.055 136.3V136.297L220.91 135.777Z" fill="#83D8DD"/>
<path d="M190.026 104.259C195.755 101.171 198.108 101.301 205.231 104.259L207.132 99.6284C207.131 98.7566 206.784 97.9206 206.167 97.3041C205.551 96.6876 204.715 96.3408 203.843 96.3398H191.098C190.226 96.3408 189.39 96.6876 188.773 97.3041C188.157 97.9206 187.81 98.7566 187.809 99.6284L190.026 104.259Z" fill="#2F2E41"/>
<path d="M161.108 153.929H108.928C107.127 153.929 105.666 155.39 105.666 157.191V214.356C105.666 216.158 107.127 217.618 108.928 217.618H161.108C162.91 217.618 164.37 216.158 164.37 214.356V157.191C164.37 155.39 162.91 153.929 161.108 153.929Z" fill="#F1F4F6"/>
<path d="M134.241 169.345C133.769 169.306 133.297 169.411 132.886 169.647C132.497 169.979 132.184 170.392 131.969 170.857C130.978 172.598 129.635 174.115 128.027 175.31C126.856 176.169 125.366 177.239 125.567 178.821C125.672 179.343 125.865 179.844 126.138 180.303C127.218 182.484 130.167 184.17 129.877 186.659C130.951 184.862 129.515 183.973 130.589 182.176C131.1 181.32 131.988 180.353 132.76 180.891C133.019 181.071 133.188 181.394 133.457 181.552C134.1 181.929 134.783 181.208 135.351 180.698C137.312 178.938 140.099 179.399 142.538 179.947C143.69 180.206 144.955 180.546 145.636 181.647C146.531 183.094 144.785 184.657 144.344 186.293C144.308 186.432 144.307 186.578 144.339 186.718C144.372 186.859 144.438 186.989 144.532 187.098C144.626 187.207 144.745 187.292 144.879 187.345C145.013 187.398 145.158 187.417 145.301 187.402C146.033 187.33 146.9 187.271 146.943 186.95C147.864 186.982 148.993 186.878 149.387 185.919C149.508 185.54 149.572 185.145 149.576 184.747C149.721 183.136 150.405 181.666 150.858 180.133C151.311 178.6 151.508 176.804 150.743 175.445C150.47 174.992 150.133 174.582 149.742 174.228C145.405 170.03 139.702 169.338 134.241 169.345Z" fill="#2F2E41"/>
<path d="M130.821 189.804C130.821 189.804 131.764 197.664 128.305 198.293C124.847 198.922 131.45 209.612 131.45 209.612L147.17 211.498L143.397 198.922C143.397 198.922 140.882 197.979 142.454 191.69C144.026 185.402 130.821 189.804 130.821 189.804Z" fill="#9F616A"/>
<path d="M137.895 194.992C143.104 194.992 147.327 190.769 147.327 185.559C147.327 180.35 143.104 176.127 137.895 176.127C132.685 176.127 128.462 180.35 128.462 185.559C128.462 190.769 132.685 194.992 137.895 194.992Z" fill="#9F616A"/>
<path d="M121.66 217.618C123.328 211.059 125.631 202.224 125.631 202.224C125.631 202.224 126.528 202.407 127.939 202.614C129.999 202.921 132.076 203.109 134.159 203.179C136.824 203.253 139.63 203.077 141.801 202.325C142.62 202.063 143.384 201.655 144.058 201.121C144.342 200.893 144.596 200.629 144.814 200.338C148.586 195.306 150.157 214.485 150.157 214.485L150.449 217.618L121.66 217.618Z" fill="#83D8DD"/>
<path d="M134.7 171.812C134.32 171.784 133.939 171.858 133.597 172.026C133.288 172.252 133.033 172.544 132.851 172.882C132.012 174.143 130.919 175.215 129.642 176.029C128.688 176.636 127.476 177.392 127.639 178.51C127.727 178.885 127.885 179.24 128.104 179.558C128.986 181.115 129.338 182.918 129.105 184.693L131.727 180.882C132.143 180.277 132.866 179.594 133.495 179.974C133.705 180.101 133.843 180.329 134.062 180.441C134.585 180.707 135.141 180.198 135.604 179.837C137.2 178.593 139.469 178.919 141.455 179.307C142.392 179.49 143.422 179.73 143.976 180.508C144.897 181.8 143.935 183.668 144.473 185.162C144.623 185.056 144.751 184.922 144.849 184.766C144.946 184.611 145.011 184.437 145.041 184.256C145.79 184.279 146.709 184.205 147.03 183.527C147.128 183.262 147.18 182.982 147.184 182.699C147.302 181.56 147.858 180.522 148.227 179.438C148.596 178.355 148.756 177.085 148.134 176.124C147.906 175.798 147.631 175.509 147.319 175.264C143.788 172.297 139.146 171.808 134.7 171.812Z" fill="#2F2E41"/>
<path d="M133.808 202.536C131.656 200.077 130.378 196.491 130.32 196.331V196.327C130.32 196.327 126.89 194.363 125.947 196.25C125.004 198.136 116.2 202.851 115.257 202.851C115.249 202.855 115.241 202.857 115.233 202.859C114.859 202.984 110.175 204.687 108.97 211.028C108.643 213.21 108.469 215.412 108.448 217.618H134.088C134.353 214.839 134.552 212.24 134.63 209.995C134.743 206.866 134.634 204.434 134.158 203.179C134.082 202.945 133.963 202.727 133.808 202.536Z" fill="#2F2E41"/>
<path d="M155.854 204.305C155.839 204.231 155.827 204.169 155.815 204.11C155.774 203.943 155.702 203.785 155.605 203.642C155.603 203.639 155.602 203.635 155.601 203.631C153.785 200.817 142.105 196.943 142.105 196.943L141.668 198.451C141.668 198.451 141.723 199.94 141.801 202.325C141.879 204.558 141.972 207.575 142.062 210.887C142.124 213.05 142.179 215.342 142.23 217.618H159.701C158.722 213.098 157.437 208.65 155.854 204.305Z" fill="#2F2E41"/>
<path d="M226.337 153.929H174.157C172.355 153.929 170.895 155.39 170.895 157.191V214.356C170.895 216.158 172.355 217.618 174.157 217.618H226.337C228.138 217.618 229.599 216.158 229.599 214.356V157.191C229.599 155.39 228.138 153.929 226.337 153.929Z" fill="#F1F4F6"/>
<path d="M199.353 172.023C191.997 172.023 186.033 178.641 186.033 186.805V197.177H189.223L191.07 193.334L190.608 197.177H211.113L212.792 193.684L212.372 197.177H214.681V189.033C214.681 179.639 207.818 172.023 199.353 172.023Z" fill="#2F2E41"/>
<path d="M198.173 195.728C203.41 195.728 207.656 191.482 207.656 186.245C207.656 181.008 203.41 176.763 198.173 176.763C192.936 176.763 188.691 181.008 188.691 186.245C188.691 191.482 192.936 195.728 198.173 195.728Z" fill="#F6CEB1"/>
<path d="M192.738 191.935C192.738 191.935 195.52 206.348 194.255 207.865C192.991 209.383 207.657 205.084 207.657 205.084C207.657 205.084 202.853 195.222 205.382 189.659L192.738 191.935Z" fill="#F6CEB1"/>
<path d="M218.464 201.682H218.461C218.237 201.21 217.851 200.834 217.373 200.622C215.514 199.839 213.912 199.239 212.595 198.783C210.265 197.983 207.723 198.062 205.448 199.005C205.225 199.094 205.007 199.192 204.793 199.301C204.793 199.301 195.521 201.066 194.418 200.844C194.337 200.829 194.251 200.817 194.169 200.809C194.002 200.785 193.834 200.771 193.666 200.766C191.509 200.666 189.369 201.197 187.509 202.294C184.465 204.059 179.952 207.189 179.858 210.237L179.772 210.334L179.858 217.618H220.553C220.635 210.638 220.682 205.392 220.682 205.038C220.682 203.935 218.464 201.682 218.464 201.682Z" fill="#83D8DD"/>
<path d="M203.14 176.095C202.499 175.234 201.668 174.533 200.712 174.045C199.756 173.557 198.701 173.296 197.628 173.282H197.366C192.324 173.282 188.237 177.845 188.237 183.473L189.926 183.473L190.199 181.396L190.599 183.473H200.619L201.459 181.716L201.249 183.473H203.22C204.14 188.041 202.818 192.609 199.255 197.177H202.613L204.292 193.663L203.872 197.177H210.274L211.533 189.095C211.533 183.042 208.016 177.909 203.14 176.095Z" fill="#2F2E41"/>
<path d="M204.98 176.946C207.735 176.946 209.969 174.712 209.969 171.957C209.969 169.201 207.735 166.968 204.98 166.968C202.225 166.968 199.991 169.201 199.991 171.957C199.991 174.712 202.225 176.946 204.98 176.946Z" fill="#2F2E41"/>
</g>
<rect x="88.5397" y="32.6225" width="157.806" height="336" rx="18.7573" stroke="#2E3946" stroke-width="4.8932"/>
</g>
<path d="M293 232H42V236H293V232Z" fill="#F5F9FA" mask="url(#path-3-inside-1_1385_21867)"/>
<g filter="url(#filter0_d_1385_21867)">
<rect x="226" y="125" width="42" height="42" rx="15.75" fill="#F1F4F6"/>
<g clip-path="url(#clip3_1385_21867)">
<path d="M247 137.75L244.75 143.75L238.75 146L244.75 148.25L247 154.25L249.25 148.25L255.25 146L249.25 143.75L247 137.75Z" fill="#2E3946"/>
</g>
</g>
<g filter="url(#filter1_d_1385_21867)">
<rect width="35.3167" height="35.3169" rx="12.6131" transform="matrix(0.440153 0.897923 -0.897925 0.440148 259.712 14)" fill="#F1F4F6"/>
<g clip-path="url(#clip4_1385_21867)">
<path d="M244.642 38.4192C244.365 37.856 244.324 37.2062 244.527 36.6127C244.73 36.0193 245.161 35.5308 245.724 35.2547L249.122 33.5892C249.685 33.3132 250.335 33.2721 250.928 33.4751C251.522 33.6782 252.01 34.1086 252.286 34.6718L254.368 38.919C254.644 39.4822 254.685 40.132 254.482 40.7254C254.279 41.3189 253.849 41.8074 253.286 42.0834L249.888 43.7489C249.325 44.025 248.675 44.0661 248.081 43.863C247.488 43.66 247 43.2295 246.723 42.6663L244.642 38.4192ZM257.479 38.7404L255.051 38.3777C255.024 38.2929 254.99 38.21 254.95 38.129L253.268 34.6974C253.228 34.6158 253.183 34.5385 253.133 34.4653L254.334 32.3239C254.439 32.1358 254.594 31.9802 254.782 31.8738C254.969 31.7673 255.182 31.7142 255.398 31.7201C255.613 31.726 255.823 31.7906 256.004 31.9071C256.186 32.0236 256.332 32.1875 256.427 32.381L258.716 37.0511C258.811 37.2447 258.851 37.4606 258.832 37.6753C258.813 37.8901 258.735 38.0955 258.608 38.2695C258.481 38.4434 258.308 38.5792 258.109 38.6622C257.91 38.7452 257.692 38.7723 257.479 38.7404Z" fill="#2E3946"/>
</g>
</g>
<g filter="url(#filter2_d_1385_21867)">
<rect width="37.1794" height="37.1792" rx="13.2783" transform="matrix(0.866027 0.499997 -0.500003 0.866024 75.168 31.8596)" fill="#F1F4F6"/>
<g clip-path="url(#clip5_1385_21867)">
<path d="M85.4042 63.2596L88.1429 58.5161L77.7934 52.5409L75.0547 57.2843C74.7246 57.8562 74.6351 58.5357 74.806 59.1735C74.9769 59.8113 75.3942 60.3551 75.966 60.6853L82.0032 64.1708C82.5751 64.501 83.2546 64.5905 83.8924 64.4196C84.5302 64.2487 85.074 63.8314 85.4042 63.2596ZM80.1213 56.4699C80.0224 56.6411 79.8596 56.766 79.6686 56.8172C79.4777 56.8684 79.2742 56.8416 79.103 56.7427C78.9318 56.6439 78.8069 56.4811 78.7557 56.2901C78.7045 56.0992 78.7313 55.8957 78.8302 55.7245C78.929 55.5533 79.0918 55.4283 79.2828 55.3772C79.4738 55.326 79.6772 55.3528 79.8484 55.4516C80.0196 55.5505 80.1446 55.7133 80.1957 55.9043C80.2469 56.0952 80.2201 56.2987 80.1213 56.4699ZM78.8764 58.626C78.7776 58.7972 78.6148 58.9222 78.4238 58.9733C78.2328 59.0245 78.0294 58.9977 77.8582 58.8989C77.687 58.8 77.562 58.6372 77.5109 58.4462C77.4597 58.2553 77.4865 58.0518 77.5853 57.8806C77.6842 57.7094 77.847 57.5845 78.0379 57.5333C78.2289 57.4821 78.4324 57.5089 78.6036 57.6078C78.7748 57.7066 78.8997 57.8694 78.9509 58.0604C79.0021 58.2513 78.9753 58.4548 78.8764 58.626ZM82.4947 57.8402C82.3959 58.0114 82.2331 58.1364 82.0421 58.1875C81.8512 58.2387 81.6477 58.2119 81.4765 58.1131C81.3053 58.0142 81.1803 57.8514 81.1292 57.6604C81.078 57.4695 81.1048 57.266 81.2036 57.0948C81.3025 56.9236 81.4653 56.7987 81.6563 56.7475C81.8472 56.6963 82.0507 56.7231 82.2219 56.822C82.3931 56.9208 82.518 57.0836 82.5692 57.2746C82.6204 57.4655 82.5936 57.669 82.4947 57.8402ZM81.2499 59.9963C81.151 60.1675 80.9882 60.2925 80.7973 60.3436C80.6063 60.3948 80.4029 60.368 80.2316 60.2692C80.0604 60.1703 79.9355 60.0075 79.8843 59.8166C79.8332 59.6256 79.86 59.4221 79.9588 59.2509C80.0577 59.0797 80.2205 58.9548 80.4114 58.9036C80.6024 58.8525 80.8058 58.8792 80.9771 58.9781C81.1483 59.0769 81.2732 59.2397 81.3244 59.4307C81.3755 59.6217 81.3487 59.8251 81.2499 59.9963ZM84.8648 59.2085C84.7659 59.3797 84.6031 59.5047 84.4122 59.5558C84.2212 59.607 84.0177 59.5802 83.8465 59.4814C83.6753 59.3825 83.5504 59.2197 83.4992 59.0288C83.448 58.8378 83.4748 58.6343 83.5737 58.4631C83.6725 58.2919 83.8353 58.167 84.0263 58.1158C84.2173 58.0647 84.4207 58.0914 84.5919 58.1903C84.7631 58.2891 84.8881 58.4519 84.9392 58.6429C84.9904 58.8339 84.9636 59.0373 84.8648 59.2085ZM88.8898 57.2224C89.2199 56.6506 89.3094 55.971 89.1385 55.3332C88.9676 54.6954 88.5503 54.1516 87.9785 53.8214L81.9413 50.3359C81.3695 50.0058 80.6899 49.9163 80.0521 50.0872C79.4143 50.2581 78.8705 50.6753 78.5403 51.2472L78.2913 51.6784L88.6408 57.6536L88.8898 57.2224Z" fill="#1F2936"/>
</g>
</g>
</g>
<defs>
<filter id="filter0_d_1385_21867" x="194.5" y="93.5" width="105" height="105" filterUnits="userSpaceOnUse" color-interpolation-filters="sRGB">
<feFlood flood-opacity="0" result="BackgroundImageFix"/>
<feColorMatrix in="SourceAlpha" type="matrix" values="0 0 0 0 0 0 0 0 0 0 0 0 0 0 0 0 0 0 127 0" result="hardAlpha"/>
<feOffset/>
<feGaussianBlur stdDeviation="15.75"/>
<feComposite in2="hardAlpha" operator="out"/>
<feColorMatrix type="matrix" values="0 0 0 0 0.0119854 0 0 0 0 0.457279 0 0 0 0 0.478483 0 0 0 0.32 0"/>
<feBlend mode="normal" in2="BackgroundImageFix" result="effect1_dropShadow_1385_21867"/>
<feBlend mode="normal" in="SourceGraphic" in2="effect1_dropShadow_1385_21867" result="shape"/>
</filter>
<filter id="filter1_d_1385_21867" x="201.99" y="-12.0103" width="99.277" height="99.277" filterUnits="userSpaceOnUse" color-interpolation-filters="sRGB">
<feFlood flood-opacity="0" result="BackgroundImageFix"/>
<feColorMatrix in="SourceAlpha" type="matrix" values="0 0 0 0 0 0 0 0 0 0 0 0 0 0 0 0 0 0 127 0" result="hardAlpha"/>
<feOffset/>
<feGaussianBlur stdDeviation="15.1358"/>
<feComposite in2="hardAlpha" operator="out"/>
<feColorMatrix type="matrix" values="0 0 0 0 0.0119854 0 0 0 0 0.457279 0 0 0 0 0.478483 0 0 0 0.32 0"/>
<feBlend mode="normal" in2="BackgroundImageFix" result="effect1_dropShadow_1385_21867"/>
<feBlend mode="normal" in="SourceGraphic" in2="effect1_dropShadow_1385_21867" result="shape"/>
</filter>
<filter id="filter2_d_1385_21867" x="29.5681" y="4.84957" width="104.808" height="104.808" filterUnits="userSpaceOnUse" color-interpolation-filters="sRGB">
<feFlood flood-opacity="0" result="BackgroundImageFix"/>
<feColorMatrix in="SourceAlpha" type="matrix" values="0 0 0 0 0 0 0 0 0 0 0 0 0 0 0 0 0 0 127 0" result="hardAlpha"/>
<feOffset/>
<feGaussianBlur stdDeviation="15.934"/>
<feComposite in2="hardAlpha" operator="out"/>
<feColorMatrix type="matrix" values="0 0 0 0 0.0119854 0 0 0 0 0.457279 0 0 0 0 0.478483 0 0 0 0.32 0"/>
<feBlend mode="normal" in2="BackgroundImageFix" result="effect1_dropShadow_1385_21867"/>
<feBlend mode="normal" in="SourceGraphic" in2="effect1_dropShadow_1385_21867" result="shape"/>
</filter>
<linearGradient id="paint0_linear_1385_21867" x1="168.043" y1="-8.80604" x2="168.043" y2="242.756" gradientUnits="userSpaceOnUse">
<stop stop-color="#56CBD2"/>
<stop offset="1" stop-color="#4EB7BD"/>
</linearGradient>
<clipPath id="clip0_1385_21867">
<rect width="335" height="234" rx="16" fill="white"/>
</clipPath>
<clipPath id="clip1_1385_21867">
<path d="M42 -17H293V234H42V-17Z" fill="white"/>
</clipPath>
<clipPath id="clip2_1385_21867">
<rect x="90.9863" y="35.0691" width="152.912" height="331.106" rx="16.3107" fill="white"/>
</clipPath>
<clipPath id="clip3_1385_21867">
<rect width="18" height="18" fill="white" transform="translate(238 137)"/>
</clipPath>
<clipPath id="clip4_1385_21867">
<rect width="15.1358" height="15.1358" fill="white" transform="matrix(0.897925 -0.440148 0.440153 0.897923 241.502 34.1638)"/>
</clipPath>
<clipPath id="clip5_1385_21867">
<rect width="15.934" height="15.934" fill="white" transform="matrix(0.866027 0.499997 -0.500003 0.866024 79.0562 46.3704)"/>
</clipPath>
</defs>
</svg>
