<svg width="48" height="48" viewBox="0 0 48 48" fill="none" xmlns="http://www.w3.org/2000/svg">
<rect width="48" height="48" rx="14" fill="#FCEDEE"/>
<path d="M14 14L34 34" stroke="#E44E58" stroke-width="2" stroke-linecap="round" stroke-linejoin="round"/>
<path d="M30.8899 25.23C30.9621 24.824 30.9989 24.4124 30.9999 24V22" stroke="#E44E58" stroke-width="2" stroke-linecap="round" stroke-linejoin="round"/>
<path d="M17 22V24C16.9797 25.3992 17.3791 26.7723 18.1468 27.9422C18.9146 29.1121 20.0153 30.0251 21.307 30.5633C22.5986 31.1015 24.022 31.2402 25.3933 30.9616C26.7645 30.6829 28.0208 29.9997 29 29" stroke="#E44E58" stroke-width="2" stroke-linecap="round" stroke-linejoin="round"/>
<path d="M27.0001 21.34V17C26.996 16.3264 26.7653 15.6737 26.3452 15.1471C25.9251 14.6205 25.34 14.2507 24.6841 14.0971C24.0282 13.9435 23.3397 14.0151 22.7295 14.3005C22.1192 14.5858 21.6228 15.0682 21.3201 15.67" stroke="#E44E58" stroke-width="2" stroke-linecap="round" stroke-linejoin="round"/>
<path d="M21 21V24C21.0005 24.593 21.1768 25.1725 21.5064 25.6653C21.8361 26.1582 22.3045 26.5423 22.8523 26.7691C23.4002 26.996 24.0029 27.0554 24.5845 26.9399C25.1661 26.8243 25.7005 26.539 26.12 26.12" stroke="#E44E58" stroke-width="2" stroke-linecap="round" stroke-linejoin="round"/>
<path d="M24 31V34" stroke="#E44E58" stroke-width="2" stroke-linecap="round" stroke-linejoin="round"/>
</svg>
