<svg width="25" height="25" viewBox="0 0 25 25" fill="none" xmlns="http://www.w3.org/2000/svg">
<path d="M16.4995 13.5L21.7225 16.982C21.7978 17.0321 21.8853 17.0609 21.9756 17.0652C22.066 17.0695 22.1558 17.0493 22.2355 17.0066C22.3152 16.9639 22.3819 16.9004 22.4284 16.8228C22.4749 16.7452 22.4995 16.6565 22.4995 16.566V8.37002C22.4995 8.28204 22.4764 8.19562 22.4323 8.11947C22.3882 8.04332 22.3249 7.98014 22.2486 7.93632C22.1723 7.8925 22.0858 7.86958 21.9978 7.86988C21.9098 7.87017 21.8235 7.89368 21.7475 7.93802L16.4995 11" stroke="" stroke-width="2" stroke-linecap="round" stroke-linejoin="round"/>
<path d="M14.4995 5.5H4.49951C3.39494 5.5 2.49951 6.54467 2.49951 7.83333V17.1667C2.49951 18.4553 3.39494 19.5 4.49951 19.5H14.4995C15.6041 19.5 16.4995 18.4553 16.4995 17.1667V7.83333C16.4995 6.54467 15.6041 5.5 14.4995 5.5Z" stroke="" stroke-width="2" stroke-linecap="round" stroke-linejoin="round"/>
<path d="M6.58301 12.5H12.4163" stroke="" stroke-width="2" stroke-linecap="round" stroke-linejoin="round"/>
<path d="M9.49951 9.58325V15.4166" stroke="" stroke-width="2" stroke-linecap="round" stroke-linejoin="round"/>
</svg>
