<svg width="254" height="214" viewBox="0 0 254 214" fill="none" xmlns="http://www.w3.org/2000/svg">
<path d="M195.522 118.658C195.493 133.328 189.978 147.457 180.06 158.267C170.142 169.077 156.539 175.786 141.925 177.075C127.312 178.363 112.745 174.139 101.088 165.232C89.4308 156.325 81.5274 143.379 78.9314 128.941C76.3354 114.502 79.2344 99.614 87.0586 87.2043C94.8829 74.7946 107.066 65.7606 121.214 61.8783C135.361 57.996 150.449 59.5463 163.511 66.2244C176.573 72.9026 186.665 84.2254 191.802 97.9669C191.93 98.3119 192.055 98.657 192.177 99.0053V99.0086C192.719 100.54 193.197 102.1 193.61 103.688C194.884 108.576 195.526 113.607 195.522 118.658Z" fill="#434D59"/>
<path d="M129.895 78.7468C129.099 75.3435 124.285 76.4977 121.265 76.3741C118.246 76.2506 115.237 76.8183 112.47 78.0339C110.034 79.0942 107.469 80.9961 106.656 84.4308C109.943 82.4909 114.198 85.5559 115.044 90.4727C115.044 90.4727 115.293 87.1216 114.847 90.5272C114.4 93.9328 115.22 102.83 117.328 99.7523C117.958 98.8323 117.825 97.8906 118.364 97.0916C118.903 96.2927 119.613 95.6237 120.442 95.1334C121.861 94.2009 123.43 93.5235 124.513 91.9205C125.797 90.0202 126.123 87.243 126.633 84.7094C127.142 82.1758 130.499 81.3313 129.895 78.7468Z" fill="#83D8DD"/>
<path d="M112.531 107.727C111.621 109.095 110.405 109.952 109.314 111.02C108.054 112.166 107.228 113.711 106.974 115.395C106.836 116.584 107.05 117.794 107.02 118.997C106.991 120.199 106.59 121.553 105.771 121.852C104.48 122.319 103.494 119.92 102.166 119.752C101.111 119.621 100.161 121.281 100.467 122.72C100.5 122.873 100.545 123.017 100.601 123.151C101.184 124.548 103.697 125.447 103.051 126.817C102.945 127.042 102.815 127.241 102.666 127.402C102.394 127.695 102.096 128.013 102.037 128.409C101.918 129.198 101.01 129.59 100.361 129.127C98.0043 127.447 95.6836 125.646 93.6774 123.229C90.9983 120.029 89.3365 116.102 88.9055 111.95C88.5933 108.615 89.0567 104.799 87.5253 102.233C86.2994 100.179 84.1961 99.725 82.3031 99.8532C81.8198 99.8854 81.442 99.4277 81.6032 98.9709C82.5238 96.3621 83.6283 93.8221 84.9082 91.3698C85.2845 90.6488 85.9444 90.1317 86.5623 89.6029C88.3238 88.1076 89.106 85.0808 90.5355 82.9874C90.6275 82.8526 90.7229 82.7212 90.8214 82.593C92.2839 80.6836 94.2426 79.701 96.1355 78.7873C100.326 76.7531 104.637 74.6925 109.061 74.9751C111.822 75.1516 107.172 76.8608 106.242 79.4666C105.292 82.1245 104.342 84.7825 103.392 87.4405C103.168 88.0714 102.943 88.7035 102.715 89.3367C101.88 91.6766 101.019 94.1677 101.147 96.787C101.223 98.3381 101.762 99.9945 102.787 100.527C103.744 101.02 104.789 100.415 105.712 99.817C106.103 99.5673 106.491 99.3175 106.882 99.0644C108.285 98.1607 109.84 97.2339 111.322 97.8386C112.679 98.3906 113.682 100.234 113.872 102.223C114.047 104.155 113.575 106.092 112.531 107.727Z" fill="#83D8DD"/>
<path d="M119.842 135.819C118.575 135.039 107.352 128.749 107.616 128.069C105.068 129.04 104.01 133.569 104.431 137.273C104.852 140.978 106.28 144.289 107.001 147.898C107.974 152.838 107.607 157.947 105.938 162.697C111.327 156.65 116.097 150.078 120.175 143.079C120.744 142.197 121.178 141.235 121.462 140.224C121.763 139.146 121.656 137.996 121.161 136.993C120.826 136.498 120.372 136.094 119.842 135.819Z" fill="#83D8DD"/>
<path d="M103.666 89.9092C103.185 90.9425 103.11 92.1193 103.458 93.2049C103.863 94.0795 104.596 94.759 105.499 95.0952L107.764 96.2177C108.517 96.5912 109.329 96.9683 110.097 96.6611C111.024 96.2905 111.666 94.8383 111.5 93.4901C111.323 92.0554 110.419 91.0686 109.582 90.2282C108.412 89.0522 107.241 87.8761 106.071 86.7001L105.411 87.508C104.698 88.2039 104.108 89.0158 103.666 89.9092Z" fill="#83D8DD"/>
<path d="M183.383 105.246C184.401 105.486 185.42 105.726 186.439 105.966C186.262 109.407 184.556 112.591 182.269 113.745C181.316 114.225 180.254 114.402 179.465 115.299C178.752 116.114 178.391 117.383 178.059 118.596C177.477 120.712 176.895 122.828 176.314 124.945C175.689 127.226 174.887 129.759 173.264 130.581C171.87 131.288 170.276 130.423 169.205 128.974C168.134 127.525 167.48 125.576 166.846 123.676C166.885 125.747 165.922 127.778 164.558 128.497C163.191 129.217 161.528 128.566 160.615 126.959C159.957 125.806 159.684 124.284 159.04 123.114C158.396 121.944 157.045 121.274 156.342 122.372C155.879 123.101 155.938 124.219 155.708 125.145C155.592 125.761 155.287 126.325 154.836 126.759C154.385 127.193 153.81 127.475 153.191 127.567C152.621 127.554 152.06 127.426 151.542 127.189C151.024 126.952 150.56 126.612 150.177 126.19C148.164 124.132 146.854 121.49 146.434 118.642C146.149 117.276 146.185 115.863 146.539 114.514C146.943 113.236 147.919 112.25 148.889 112.493C149.526 111.145 148.268 109.358 147.134 109.515C145.997 109.673 145.106 110.892 144.173 111.829C143.243 112.766 141.941 113.446 141.005 112.516C141.026 112.856 140.91 113.19 140.685 113.446C140.459 113.701 140.141 113.856 139.801 113.877C139.767 113.879 139.734 113.88 139.7 113.88C139.077 113.701 138.498 113.394 138.001 112.979C135.855 111.642 133.13 112.529 131.605 115.059C132.559 111.004 133.955 106.35 136.883 105.397C138.08 105.006 139.384 105.328 140.515 104.651C142.516 103.452 142.921 98.9199 141.192 97.0499C141.412 98.818 141.369 100.882 140.436 102.091C139.503 103.301 137.544 102.512 137.662 100.724C137.636 100.976 137.53 101.212 137.361 101.4C137.192 101.588 136.967 101.717 136.72 101.77C136.473 101.822 136.215 101.795 135.984 101.692C135.753 101.59 135.561 101.416 135.434 101.197C134.813 100.251 134.866 98.703 135.306 97.5725C135.76 96.5486 136.411 95.624 137.222 94.8514C138.783 93.1786 140.367 91.4861 142.175 90.4344C143.985 89.3828 146.076 89.0279 147.89 90.073C148.846 90.625 149.687 91.5453 150.663 92.0316C150.893 92.1739 151.148 92.2697 151.414 92.3134C151.681 92.3571 151.953 92.3479 152.216 92.2864C152.479 92.2249 152.727 92.1121 152.946 91.9547C153.165 91.7973 153.351 91.5982 153.494 91.3688C153.505 91.3511 153.515 91.3332 153.526 91.3152C154.252 90.04 153.91 88.1471 154.18 86.5532C154.663 83.7368 157.479 82.4189 159.04 84.279C157.874 83.98 156.668 85.3602 156.523 87.033C156.375 88.7058 157.22 90.395 158.35 90.9011C160.25 91.7424 162.11 89.626 163.546 87.6673C165.045 85.6166 166.545 83.567 168.048 81.5185C168.288 81.1697 168.558 80.842 168.854 80.5391C169.324 80.0803 169.952 79.8175 170.609 79.8041C171.266 79.7907 171.904 80.0276 172.393 80.4668C173.911 81.7058 174.624 84.2462 175.87 85.9945C177.678 88.5349 180.382 89.1528 182.9 89.6457C184.776 90.0105 186.654 90.3775 188.533 90.7466C189.785 93.0765 190.877 95.4888 191.802 97.9669C188.357 99.5379 185.435 102.064 183.383 105.246Z" fill="#83D8DD"/>
<path d="M189.45 144.788C188.042 147.647 186.404 150.387 184.553 152.981C183.37 152.475 182.098 153.379 180.99 154.227C179.834 155.114 178.443 155.978 177.257 155.17C176.044 154.342 175.653 152.025 176.038 150.188C176.48 148.493 177.253 146.903 178.312 145.508C179.298 144.036 180.353 142.507 181.723 141.936C183.097 141.364 184.862 142.172 185.263 144.124L186.235 144.091C185.69 143.342 185.976 141.791 186.709 141.518C187.553 141.199 188.286 142.359 188.786 143.385C189.009 143.848 189.236 144.315 189.45 144.788Z" fill="#83D8DD"/>
<path d="M152.192 130.907C150.101 131.038 148.445 128.464 147.344 125.932C146.244 123.4 145.239 120.504 143.353 119.215C142.275 118.478 141.046 118.377 139.876 118.02C139.213 117.853 138.6 117.53 138.086 117.078C137.573 116.626 137.174 116.058 136.924 115.421L135.598 114.885C133.743 115.813 132.044 117.024 130.562 118.476C128.869 120.274 127.815 122.579 127.561 125.036C127.308 127.691 128.244 130.651 129.992 131.649C131.373 132.437 132.982 131.94 134.381 132.661C136.129 133.563 137.167 136.181 137.56 138.766C137.953 141.351 137.853 144.038 138.134 146.653C138.415 149.267 139.19 151.988 140.793 153.328C142.799 155.004 145.743 153.611 146.643 150.559C147.085 149.062 147.07 147.373 147.4 145.818C147.981 143.082 149.551 141.051 150.795 138.806C152.04 136.561 153.02 133.512 152.192 130.907Z" fill="#83D8DD"/>
<path d="M131.531 104.014C131.726 104.193 131.908 104.386 132.076 104.592C132.249 104.891 132.338 105.231 132.332 105.577C132.326 105.922 132.226 106.26 132.042 106.553C132.294 106.538 132.54 106.472 132.765 106.358C132.99 106.243 133.189 106.084 133.349 105.889C133.73 105.454 134.066 104.981 134.351 104.477C134.484 104.305 134.58 104.106 134.631 103.894C134.682 103.682 134.687 103.461 134.646 103.247C134.547 102.965 134.314 102.844 134.15 102.632C133.923 102.218 133.768 101.768 133.692 101.301C133.601 100.864 133.39 100.461 133.083 100.137C132.775 99.8134 132.384 99.5817 131.952 99.4681L132.057 99.4881C131.878 99.594 131.738 99.753 131.654 99.9428C131.571 100.133 131.549 100.344 131.591 100.547C131.655 100.957 131.918 101.297 131.892 101.716C131.854 102.317 131.253 102.599 131.216 103.201C131.21 103.503 131.323 103.795 131.531 104.014Z" fill="#83D8DD"/>
<path d="M127.949 93.7928L127.959 93.791C128.023 93.7324 128.082 93.6688 128.137 93.6009L127.949 93.7928Z" fill="#83D8DD"/>
<path d="M128.575 96.616C128.827 96.3956 129.012 96.1105 129.112 95.7917C129.213 95.4729 129.223 95.1328 129.143 94.8084C128.991 94.1245 128.454 93.6647 127.958 93.791C127.814 93.9368 127.635 94.0437 127.439 94.1016C127.242 94.1594 127.034 94.1664 126.834 94.1217C126.528 94.0428 126.191 93.8395 125.925 94.0705C125.773 94.243 125.667 94.4509 125.616 94.6751C125.517 94.9773 125.419 95.2794 125.32 95.5814C125.274 95.6896 125.261 95.8095 125.285 95.9248C125.304 95.9711 125.335 96.0117 125.374 96.0427C125.413 96.0738 125.459 96.0943 125.509 96.1022L127.28 96.6245C127.483 96.7181 127.705 96.7659 127.929 96.7645C128.153 96.763 128.373 96.7123 128.575 96.616Z" fill="#83D8DD"/>
<path d="M173.154 135.592C172.881 135.145 172.608 134.699 172.335 134.252C172.067 133.734 171.7 133.274 171.256 132.897C171.061 132.734 170.81 132.655 170.558 132.677C170.305 132.7 170.072 132.821 169.909 133.016L169.895 133.033L169.928 133.288C170.659 134.072 171.157 135.044 171.366 136.095C171.428 136.551 171.407 137.024 171.461 137.483C171.467 137.695 171.514 137.905 171.601 138.099C171.688 138.293 171.812 138.469 171.967 138.615C172.397 138.902 172.901 138.479 173.207 137.962C173.481 137.538 173.603 137.034 173.555 136.531C173.487 136.194 173.35 135.874 173.154 135.592Z" fill="#83D8DD"/>
<path d="M177.435 136.174C177.487 135.756 177.453 135.331 177.335 134.926C177.315 134.379 177.46 133.838 177.752 133.373C178.041 132.935 178.26 132.455 178.401 131.95C178.46 131.719 178.45 131.476 178.37 131.252C178.28 131.049 178.061 130.957 177.935 131.118L178.204 131.291C177.841 131.226 177.468 131.244 177.114 131.343C176.911 131.421 176.73 131.546 176.587 131.708C176.443 131.87 176.34 132.065 176.287 132.275C176.243 132.602 176.171 132.926 176.071 133.241C175.91 133.57 175.6 133.68 175.405 133.969C175.272 134.225 175.205 134.511 175.21 134.799C175.215 135.088 175.291 135.371 175.433 135.623C175.678 136.034 176.067 136.34 176.525 136.481C176.853 136.599 177.285 136.605 177.435 136.174Z" fill="#83D8DD"/>
<path d="M185.06 138.475C185.179 138.783 185.338 139.075 185.533 139.342C185.898 139.709 186.394 139.483 186.837 139.394C187.239 139.331 187.65 139.377 188.028 139.529C188.405 139.68 188.735 139.931 188.982 140.254C188.81 139.398 188.435 138.595 187.889 137.913C187.342 137.232 186.64 136.691 185.842 136.337C184.804 135.978 183.71 135.807 182.612 135.832L182.425 135.88C182.903 137.271 184.403 137.24 185.06 138.475Z" fill="#83D8DD"/>
<path d="M152.765 141.32L152.767 141.326L152.822 141.221L152.765 141.32Z" fill="#83D8DD"/>
<path d="M151.608 143.559C151.355 144.017 151.138 144.493 150.959 144.984C150.721 145.78 150.563 146.597 150.488 147.424C150.43 147.894 150.411 148.494 150.706 148.723C150.791 148.779 150.893 148.803 150.993 148.789C151.094 148.776 151.186 148.726 151.252 148.649C151.416 148.476 151.55 148.277 151.649 148.06C152.228 147.063 152.677 145.996 152.986 144.886C153.309 143.708 153.232 142.456 152.767 141.326C152.381 142.07 151.994 142.814 151.608 143.559Z" fill="#83D8DD"/>
<path d="M140.449 83.9054C140.632 84.085 140.865 84.207 141.117 84.2562C141.369 84.3054 141.63 84.2798 141.868 84.1824C142.36 83.9671 142.812 83.6688 143.203 83.3003C143.527 83.0606 143.802 82.7608 144.013 82.4172C144.129 82.2119 144.204 81.9857 144.232 81.7515C144.26 81.5174 144.242 81.2799 144.179 81.0528C144.088 80.8352 143.944 80.6442 143.759 80.498C143.574 80.3518 143.355 80.2551 143.122 80.2172C142.467 80.0228 141.811 79.8284 141.156 79.6341L141.63 79.2068C141.142 78.945 140.603 79.4309 140.298 80.0324C140.102 80.4252 139.966 80.8447 139.893 81.2774C139.79 81.7295 139.786 82.1988 139.882 82.6526C139.977 83.1064 140.171 83.5339 140.449 83.9054Z" fill="#83D8DD"/>
<path d="M152.02 80.0208C152.205 80.2245 152.46 80.3502 152.734 80.3725C153.008 80.3948 153.28 80.312 153.495 80.1409C153.681 80.0017 153.835 79.8252 153.947 79.6226C154.06 79.4201 154.128 79.1961 154.148 78.9653C154.195 78.4497 153.94 77.8767 153.576 77.8322L153.659 77.3495C152.958 77.2229 152.095 77.1975 151.719 78.0492C151.592 78.3754 151.553 78.7292 151.606 79.0752C151.659 79.4212 151.801 79.7473 152.02 80.0208Z" fill="#83D8DD"/>
<path d="M184.29 187.387C186.378 186.831 187.758 185.202 187.371 183.749C186.984 182.296 184.977 181.57 182.888 182.126C180.8 182.682 179.42 184.311 179.807 185.764C180.194 187.217 182.201 187.944 184.29 187.387Z" fill="#E6EAED"/>
<path d="M158.709 187.86C160.797 187.304 162.177 185.675 161.79 184.222C161.403 182.77 159.396 182.043 157.307 182.599C155.219 183.155 153.839 184.784 154.226 186.237C154.613 187.69 156.62 188.417 158.709 187.86Z" fill="#E6EAED"/>
<path d="M188.834 166.103C190.923 165.547 192.303 163.918 191.916 162.465C191.529 161.012 189.522 160.285 187.433 160.841C185.345 161.397 183.965 163.026 184.352 164.479C184.739 165.932 186.746 166.659 188.834 166.103Z" fill="#E6EAED"/>
<path d="M196.38 157.055C197.323 156.938 197.951 155.745 197.783 154.389C197.615 153.033 196.714 152.029 195.771 152.146C194.828 152.263 194.2 153.457 194.368 154.812C194.536 156.168 195.437 157.172 196.38 157.055Z" fill="#E6EAED"/>
<path d="M198.29 140.997C199.233 140.88 199.861 139.687 199.693 138.331C199.525 136.975 198.624 135.971 197.681 136.088C196.738 136.205 196.11 137.399 196.278 138.754C196.446 140.11 197.347 141.114 198.29 140.997Z" fill="#E6EAED"/>
<path d="M172.502 171.867C173.445 171.75 174.073 170.556 173.905 169.2C173.737 167.845 172.836 166.84 171.893 166.957C170.95 167.074 170.322 168.268 170.49 169.624C170.658 170.979 171.559 171.983 172.502 171.867Z" fill="#E6EAED"/>
<path d="M185.436 176.548C186.379 176.431 187.008 175.237 186.84 173.882C186.672 172.526 185.771 171.522 184.828 171.639C183.885 171.756 183.256 172.95 183.424 174.305C183.593 175.661 184.493 176.665 185.436 176.548Z" fill="#E6EAED"/>
<path d="M169.731 189.808C170.674 189.691 171.303 188.497 171.135 187.141C170.966 185.786 170.066 184.782 169.123 184.899C168.18 185.015 167.551 186.209 167.719 187.565C167.887 188.921 168.788 189.925 169.731 189.808Z" fill="#E6EAED"/>
<path d="M57.1284 165.904C59.217 165.348 60.5965 163.719 60.2096 162.266C59.8226 160.813 57.8158 160.086 55.7271 160.642C53.6385 161.198 52.259 162.827 52.6459 164.28C53.0329 165.733 55.0398 166.46 57.1284 165.904Z" fill="#E6EAED"/>
<path d="M31.5454 166.378C33.634 165.822 35.0136 164.193 34.6266 162.74C34.2397 161.287 32.2328 160.56 30.1441 161.116C28.0555 161.672 26.676 163.301 27.0629 164.754C27.4499 166.207 29.4567 166.934 31.5454 166.378Z" fill="#E6EAED"/>
<path d="M61.6743 144.619C63.763 144.062 65.1425 142.434 64.7555 140.981C64.3686 139.528 62.3617 138.801 60.273 139.357C58.1844 139.913 56.8049 141.542 57.1919 142.995C57.5788 144.448 59.5857 145.175 61.6743 144.619Z" fill="#E6EAED"/>
<path d="M69.2186 135.572C70.1616 135.455 70.7899 134.261 70.6218 132.905C70.4537 131.55 69.553 130.546 68.6099 130.662C67.6668 130.779 67.0386 131.973 67.2067 133.329C67.3748 134.684 68.2755 135.689 69.2186 135.572Z" fill="#E6EAED"/>
<path d="M71.1287 119.514C72.0718 119.397 72.7 118.203 72.532 116.848C72.3639 115.492 71.4631 114.488 70.52 114.605C69.577 114.722 68.9488 115.915 69.1168 117.271C69.2849 118.627 70.1857 119.631 71.1287 119.514Z" fill="#E6EAED"/>
<path d="M45.3407 150.383C46.2837 150.266 46.912 149.072 46.7439 147.717C46.5758 146.361 45.6751 145.357 44.732 145.474C43.7889 145.591 43.1607 146.784 43.3287 148.14C43.4968 149.496 44.3976 150.5 45.3407 150.383Z" fill="#E6EAED"/>
<path d="M58.2743 155.065C59.2173 154.948 59.8455 153.754 59.6775 152.398C59.5094 151.043 58.6086 150.038 57.6656 150.155C56.7225 150.272 56.0943 151.466 56.2623 152.822C56.4304 154.177 57.3312 155.181 58.2743 155.065Z" fill="#E6EAED"/>
<path d="M42.5701 168.324C43.5132 168.207 44.1414 167.014 43.9734 165.658C43.8053 164.302 42.9045 163.298 41.9615 163.415C41.0184 163.532 40.3902 164.726 40.5582 166.081C40.7263 167.437 41.6271 168.441 42.5701 168.324Z" fill="#E6EAED"/>
<path d="M212.555 67.535C214.644 66.9788 216.023 65.35 215.636 63.897C215.249 62.4441 213.243 61.7171 211.154 62.2734C209.065 62.8296 207.686 64.4584 208.073 65.9114C208.46 67.3643 210.467 68.0913 212.555 67.535Z" fill="#E6EAED"/>
<path d="M186.972 68.009C189.061 67.4527 190.44 65.824 190.053 64.371C189.666 62.918 187.66 62.1911 185.571 62.7473C183.482 63.3036 182.103 64.9324 182.49 66.3853C182.877 67.8383 184.884 68.5652 186.972 68.009Z" fill="#E6EAED"/>
<path d="M217.1 46.2493C219.189 45.6931 220.568 44.0643 220.181 42.6113C219.794 41.1584 217.787 40.4314 215.699 40.9877C213.61 41.5439 212.231 43.1727 212.618 44.6257C213.005 46.0787 215.011 46.8056 217.1 46.2493Z" fill="#E6EAED"/>
<path d="M200.767 52.0142C201.71 51.8973 202.339 50.7035 202.171 49.3479C202.003 47.9922 201.102 46.988 200.159 47.1049C199.216 47.2219 198.587 48.4156 198.756 49.7713C198.924 51.1269 199.824 52.1311 200.767 52.0142Z" fill="#E6EAED"/>
<path d="M213.702 56.6957C214.645 56.5788 215.273 55.385 215.105 54.0294C214.937 52.6737 214.036 51.6695 213.093 51.7865C212.15 51.9034 211.522 53.0971 211.69 54.4528C211.858 55.8084 212.759 56.8126 213.702 56.6957Z" fill="#E6EAED"/>
<path d="M197.998 69.9554C198.941 69.8384 199.569 68.6447 199.401 67.289C199.233 65.9334 198.332 64.9292 197.389 65.0461C196.446 65.163 195.818 66.3568 195.986 67.7124C196.154 69.0681 197.055 70.0723 197.998 69.9554Z" fill="#E6EAED"/>
<path d="M49.4417 169.543C45.2562 169.543 42.5351 168.503 41.3307 166.436C38.9557 162.359 42.9334 155.205 53.1531 145.173L54.0116 146.047C44.5186 155.366 40.3911 162.388 42.3895 165.819C43.6541 167.989 47.4175 168.767 53.2754 168.067C59.0905 167.373 66.797 165.304 76.1808 161.917C95.4992 154.945 119.736 143.185 144.427 128.803C169.117 114.42 191.303 99.1388 206.898 85.7732C209.893 83.2055 212.611 80.7354 214.977 78.432C218.083 75.4819 220.949 72.2885 223.546 68.8823C227.044 64.1326 228.225 60.4749 226.96 58.3043C224.848 54.6791 215.977 55.02 201.978 59.2655L201.622 58.0927C216.641 53.5384 225.523 53.4017 228.019 57.6876C229.57 60.3504 228.397 64.3614 224.533 69.6091C221.896 73.0693 218.986 76.3133 215.832 79.31C213.448 81.6316 210.71 84.1191 207.695 86.7037C192.046 100.116 169.796 115.443 145.044 129.861C120.291 144.28 95.9827 156.074 76.5968 163.07C67.1257 166.488 59.3281 168.579 53.4206 169.284C52.1006 169.449 50.772 169.535 49.4417 169.543Z" fill="#2E3946"/>
<path d="M176.709 171.711C184.718 171.711 191.211 165.218 191.211 157.209C191.211 149.2 184.718 142.708 176.709 142.708C168.7 142.708 162.208 149.2 162.208 157.209C162.208 165.218 168.7 171.711 176.709 171.711Z" fill="#E44E58"/>
<path d="M180.267 159.917L174.002 153.652C173.767 153.417 173.387 153.417 173.152 153.652C172.918 153.887 172.918 154.267 173.152 154.502L179.417 160.767C179.652 161.001 180.032 161.001 180.267 160.767C180.501 160.532 180.501 160.152 180.267 159.917Z" fill="white"/>
<path d="M174.001 160.767L180.267 154.502C180.501 154.267 180.501 153.887 180.267 153.652C180.032 153.417 179.652 153.417 179.417 153.652L173.152 159.917C172.917 160.152 172.917 160.532 173.152 160.767C173.387 161.001 173.767 161.001 174.001 160.767Z" fill="white"/>
<g filter="url(#filter0_d_1124_27738)">
<path d="M200.62 45.6744C205.872 46.4939 209.466 51.4157 208.646 56.6677L207.781 62.2109C206.962 67.4629 202.04 71.0561 196.788 70.2367L191.245 69.3717C185.993 68.5523 182.4 63.6304 183.219 58.3785L184.084 52.8352C184.903 47.5833 189.825 43.99 195.077 44.8095L200.62 45.6744Z" fill="#9AA6B6"/>
<g clip-path="url(#clip0_1124_27738)">
<path d="M191.584 55.1598C191.652 54.7235 191.891 54.3322 192.247 54.0719C192.604 53.8116 193.049 53.7035 193.486 53.7716L196.117 54.1822C196.554 54.2503 196.945 54.4889 197.205 54.8454C197.465 55.202 197.574 55.6474 197.505 56.0837L196.992 59.3732C196.924 59.8095 196.686 60.2008 196.329 60.4611C195.972 60.7215 195.527 60.8295 195.091 60.7614L192.459 60.3508C192.023 60.2827 191.632 60.0442 191.371 59.6876C191.111 59.331 191.003 58.8856 191.071 58.4494L191.584 55.1598ZM198.858 60.5257L197.604 59.3367C197.623 59.2766 197.637 59.2153 197.647 59.1525L198.061 56.4946C198.071 56.4314 198.077 56.3686 198.077 56.3063L199.634 55.5558C199.771 55.4899 199.923 55.4626 200.074 55.4769C200.225 55.4912 200.369 55.5465 200.491 55.6369C200.613 55.7272 200.708 55.8492 200.765 55.9896C200.823 56.1299 200.841 56.2834 200.818 56.4334L200.253 60.0506C200.23 60.2005 200.166 60.3411 200.068 60.4573C199.971 60.5735 199.843 60.6607 199.7 60.7097C199.556 60.7586 199.402 60.7673 199.253 60.7349C199.105 60.7025 198.969 60.6301 198.858 60.5257Z" fill="white"/>
</g>
</g>
<g filter="url(#filter1_d_1124_27738)">
<path d="M95.6519 144.303C100.956 144.642 104.981 149.218 104.641 154.523L104.283 160.122C103.943 165.426 99.3673 169.451 94.0627 169.111L88.4638 168.753C83.1591 168.413 79.1344 163.837 79.4742 158.532L79.8328 152.934C80.1726 147.629 84.7483 143.604 90.0529 143.944L95.6519 144.303Z" fill="#9AA6B6"/>
<g clip-path="url(#clip1_1124_27738)">
<path d="M92.3808 151.656L90.8169 155.111L87.1854 156.204L90.6406 157.768L91.7341 161.4L93.298 157.945L96.9295 156.851L93.4744 155.287L92.3808 151.656Z" fill="white"/>
</g>
</g>
<g filter="url(#filter2_d_1124_27738)">
<path d="M48.9156 127.971C51.5734 123.368 57.4597 121.79 62.063 124.448L66.9219 127.253C71.5252 129.911 73.1024 135.797 70.4447 140.401L67.6395 145.259C64.9817 149.863 59.0954 151.44 54.492 148.782L49.6332 145.977C45.0299 143.319 43.4526 137.433 46.1104 132.83L48.9156 127.971Z" fill="#9AA6B6"/>
<g clip-path="url(#clip2_1124_27738)">
<path d="M60.5725 140.631L62.4037 137.459L55.4837 133.464L53.6525 136.636C53.4317 137.018 53.3719 137.472 53.4862 137.899C53.6005 138.325 53.8795 138.689 54.2618 138.91L58.2985 141.24C58.6809 141.461 59.1353 141.521 59.5617 141.407C59.9882 141.292 60.3518 141.013 60.5725 140.631ZM57.0402 136.091C56.9741 136.206 56.8652 136.289 56.7375 136.323C56.6098 136.358 56.4738 136.34 56.3593 136.274C56.2448 136.207 56.1613 136.099 56.1271 135.971C56.0929 135.843 56.1108 135.707 56.1769 135.593C56.243 135.478 56.3518 135.395 56.4795 135.361C56.6072 135.326 56.7433 135.344 56.8577 135.41C56.9722 135.476 57.0557 135.585 57.09 135.713C57.1242 135.841 57.1063 135.977 57.0402 136.091ZM56.2078 137.533C56.1417 137.647 56.0329 137.731 55.9052 137.765C55.7775 137.799 55.6414 137.781 55.527 137.715C55.4125 137.649 55.329 137.54 55.2947 137.413C55.2605 137.285 55.2784 137.149 55.3445 137.034C55.4106 136.92 55.5195 136.836 55.6472 136.802C55.7749 136.768 55.9109 136.786 56.0254 136.852C56.1399 136.918 56.2234 137.027 56.2576 137.155C56.2918 137.282 56.2739 137.418 56.2078 137.533ZM58.6272 137.007C58.5611 137.122 58.4522 137.205 58.3245 137.24C58.1968 137.274 58.0608 137.256 57.9463 137.19C57.8318 137.124 57.7483 137.015 57.7141 136.887C57.6799 136.759 57.6978 136.623 57.7639 136.509C57.83 136.395 57.9388 136.311 58.0665 136.277C58.1942 136.243 58.3303 136.26 58.4447 136.327C58.5592 136.393 58.6427 136.502 58.677 136.629C58.7112 136.757 58.6933 136.893 58.6272 137.007ZM57.7948 138.449C57.7287 138.564 57.6199 138.647 57.4922 138.681C57.3645 138.715 57.2284 138.698 57.114 138.631C56.9995 138.565 56.916 138.457 56.8817 138.329C56.8475 138.201 56.8654 138.065 56.9315 137.951C56.9976 137.836 57.1065 137.753 57.2342 137.718C57.3619 137.684 57.4979 137.702 57.6124 137.768C57.7269 137.834 57.8104 137.943 57.8446 138.071C57.8788 138.199 57.8609 138.335 57.7948 138.449ZM60.2119 137.922C60.1458 138.037 60.0369 138.12 59.9092 138.155C59.7815 138.189 59.6455 138.171 59.531 138.105C59.4165 138.039 59.333 137.93 59.2988 137.802C59.2646 137.674 59.2825 137.538 59.3486 137.424C59.4147 137.309 59.5235 137.226 59.6512 137.192C59.7789 137.157 59.915 137.175 60.0294 137.241C60.1439 137.308 60.2274 137.416 60.2617 137.544C60.2959 137.672 60.278 137.808 60.2119 137.922ZM62.9031 136.594C63.1239 136.212 63.1837 135.758 63.0694 135.331C62.9552 134.905 62.6762 134.541 62.2938 134.32L58.2571 131.99C57.8748 131.769 57.4204 131.709 56.9939 131.823C56.5674 131.938 56.2038 132.217 55.9831 132.599L55.8166 132.887L62.7367 136.883L62.9031 136.594Z" fill="white"/>
</g>
</g>
<defs>
<filter id="filter0_d_1124_27738" x="138.502" y="0.0924797" width="114.861" height="114.861" filterUnits="userSpaceOnUse" color-interpolation-filters="sRGB">
<feFlood flood-opacity="0" result="BackgroundImageFix"/>
<feColorMatrix in="SourceAlpha" type="matrix" values="0 0 0 0 0 0 0 0 0 0 0 0 0 0 0 0 0 0 127 0" result="hardAlpha"/>
<feOffset/>
<feGaussianBlur stdDeviation="22.3003"/>
<feComposite in2="hardAlpha" operator="out"/>
<feColorMatrix type="matrix" values="0 0 0 0 0.0119854 0 0 0 0 0.457279 0 0 0 0 0.478483 0 0 0 0.32 0"/>
<feBlend mode="normal" in2="BackgroundImageFix" result="effect1_dropShadow_1124_27738"/>
<feBlend mode="normal" in="SourceGraphic" in2="effect1_dropShadow_1124_27738" result="shape"/>
</filter>
<filter id="filter1_d_1124_27738" x="34.8535" y="99.3234" width="114.408" height="114.408" filterUnits="userSpaceOnUse" color-interpolation-filters="sRGB">
<feFlood flood-opacity="0" result="BackgroundImageFix"/>
<feColorMatrix in="SourceAlpha" type="matrix" values="0 0 0 0 0 0 0 0 0 0 0 0 0 0 0 0 0 0 127 0" result="hardAlpha"/>
<feOffset/>
<feGaussianBlur stdDeviation="22.3003"/>
<feComposite in2="hardAlpha" operator="out"/>
<feColorMatrix type="matrix" values="0 0 0 0 0.0119854 0 0 0 0 0.457279 0 0 0 0 0.478483 0 0 0 0.32 0"/>
<feBlend mode="normal" in2="BackgroundImageFix" result="effect1_dropShadow_1124_27738"/>
<feBlend mode="normal" in="SourceGraphic" in2="effect1_dropShadow_1124_27738" result="shape"/>
</filter>
<filter id="filter2_d_1124_27738" x="0.218761" y="78.5564" width="116.117" height="116.117" filterUnits="userSpaceOnUse" color-interpolation-filters="sRGB">
<feFlood flood-opacity="0" result="BackgroundImageFix"/>
<feColorMatrix in="SourceAlpha" type="matrix" values="0 0 0 0 0 0 0 0 0 0 0 0 0 0 0 0 0 0 127 0" result="hardAlpha"/>
<feOffset/>
<feGaussianBlur stdDeviation="22.3003"/>
<feComposite in2="hardAlpha" operator="out"/>
<feColorMatrix type="matrix" values="0 0 0 0 0.0119854 0 0 0 0 0.457279 0 0 0 0 0.478483 0 0 0 0.32 0"/>
<feBlend mode="normal" in2="BackgroundImageFix" result="effect1_dropShadow_1124_27738"/>
<feBlend mode="normal" in="SourceGraphic" in2="effect1_dropShadow_1124_27738" result="shape"/>
</filter>
<clipPath id="clip0_1124_27738">
<rect width="10.654" height="10.654" fill="white" transform="matrix(0.988045 0.154164 -0.154159 0.988046 191.49 51.4386)"/>
</clipPath>
<clipPath id="clip1_1124_27738">
<rect width="10.6533" height="10.6533" fill="white" transform="translate(87.0957 150.86) rotate(3.79718)"/>
</clipPath>
<clipPath id="clip2_1124_27738">
<rect width="10.6541" height="10.6541" fill="white" transform="matrix(0.866027 0.499998 -0.500002 0.866024 56.3281 129.338)"/>
</clipPath>
</defs>
</svg>
