<svg width="57" height="56" viewBox="0 0 57 56" fill="none" xmlns="http://www.w3.org/2000/svg">
<rect x="0.703125" width="56" height="56" rx="20" fill="#F1F4F6"/>
<path d="M16.7031 34.6667C16.7031 32.7867 18.6911 24.9413 19.8631 20.4773C20.1565 19.364 20.3031 18.808 20.6258 18.384C20.9085 18.0133 21.2925 17.7173 21.7231 17.5373C22.2151 17.3333 22.7965 17.3333 23.9631 17.3333H33.4431C34.6098 17.3333 35.1911 17.3333 35.6831 17.5373C36.1138 17.7173 36.4978 18.0133 36.7805 18.384C37.1031 18.808 37.2498 19.364 37.5418 20.4773C38.7165 24.9413 40.7031 32.7867 40.7031 34.6667" fill="#2E3946"/>
<path d="M16.7031 34.6667C16.7031 32.7867 18.6911 24.9413 19.8631 20.4773C20.1565 19.364 20.3031 18.808 20.6258 18.384C20.9085 18.0133 21.2925 17.7173 21.7231 17.5373C22.2151 17.3333 22.7965 17.3333 23.9631 17.3333H33.4431C34.6098 17.3333 35.1911 17.3333 35.6831 17.5373C36.1138 17.7173 36.4978 18.0133 36.7805 18.384C37.1031 18.808 37.2498 19.364 37.5418 20.4773C38.7165 24.9413 40.7031 32.7867 40.7031 34.6667" stroke="#2E3946" stroke-width="2"/>
<path d="M20.7031 30.6667H36.7031C37.764 30.6667 38.7814 31.0881 39.5316 31.8383C40.2817 32.5884 40.7031 33.6058 40.7031 34.6667C40.7031 35.7276 40.2817 36.745 39.5316 37.4951C38.7814 38.2453 37.764 38.6667 36.7031 38.6667H20.7031C19.6423 38.6667 18.6248 38.2453 17.8747 37.4951C17.1246 36.745 16.7031 35.7276 16.7031 34.6667C16.7031 33.6058 17.1246 32.5884 17.8747 31.8383C18.6248 31.0881 19.6423 30.6667 20.7031 30.6667Z" fill="#F1F4F6" stroke="#2E3946" stroke-width="2"/>
<path d="M20.7031 34.6667H26.0365" stroke="#2E3946" stroke-width="2" stroke-linecap="round"/>
<path d="M36.0366 34.6667H36.7033" stroke="#2E3946" stroke-width="2" stroke-linecap="round"/>
</svg>
