<svg width="320" height="321" viewBox="0 0 320 321" fill="none" xmlns="http://www.w3.org/2000/svg">
<g clip-path="url(#clip0_1118_27095)">
<ellipse opacity="0.56" cx="160" cy="160.804" rx="71.4301" ry="154.809" transform="rotate(45 160 160.804)" fill="url(#paint0_linear_1118_27095)"/>
<path d="M176.823 239.993C179.238 245.706 185.959 256.908 186.954 263.066L186.55 262.682C185.816 263.99 184.978 265.237 184.043 266.411C182.297 264.641 180.202 263.254 177.891 262.338C179.19 264.887 179.966 267.67 180.174 270.523C176 274.294 165.128 272.256 159.752 274.322C151.101 277.637 141.875 278.927 132.763 280.023C129.529 280.414 125.905 280.681 123.599 278.806C121.293 276.93 122.581 273.358 121.31 270.696C112.259 251.736 120.164 244.697 126.829 235.908C128.296 233.974 128.238 231.128 130.032 229.276C132.521 226.708 136.393 225.864 139.964 225.179C139.034 225.244 138.103 225.069 137.26 224.67C136.417 224.272 135.691 223.662 135.151 222.902C134.676 222.134 134.422 221.25 134.417 220.347C134.412 219.444 134.656 218.558 135.123 217.785C135.855 216.721 136.811 215.83 137.925 215.175C139.039 214.521 140.283 214.12 141.569 214C144.096 213.783 146.643 213.956 149.118 214.514C150.718 214.696 152.273 215.163 153.709 215.893C154.386 216.239 154.942 216.784 155.302 217.455C155.662 218.126 155.809 218.89 155.723 219.647C155.521 220.347 155.165 220.993 154.679 221.536C154.193 222.079 153.591 222.505 152.918 222.783C151.891 223.239 150.809 223.556 149.699 223.726C154.798 222.972 160.006 223.789 164.631 226.069C170.429 229.032 174.401 234.282 176.823 239.993Z" fill="#1F2936"/>
<path d="M135.884 222.23C136.085 222.167 135.562 222.253 135.744 222.255C135.653 222.251 135.563 222.24 135.474 222.222C135.459 222.219 135.254 222.157 135.391 222.203C135.084 222.117 134.809 221.944 134.598 221.705C134.105 221.117 133.715 220.45 133.443 219.733C133.099 218.784 132.559 217.918 131.858 217.193C131.659 217 131.417 216.857 131.153 216.775C130.888 216.693 130.608 216.675 130.336 216.721C130.063 216.768 129.805 216.878 129.583 217.044C129.361 217.209 129.181 217.424 129.057 217.672C128.815 218.624 128.922 219.631 129.36 220.511C129.67 221.409 130.124 222.251 130.702 223.004C131.671 224.236 132.977 225.159 134.461 225.661C136.178 226.251 138.04 226.271 139.769 225.719C139.997 225.619 140.191 225.456 140.328 225.248C140.464 225.04 140.537 224.796 140.538 224.548C140.539 224.299 140.468 224.055 140.333 223.846C140.197 223.637 140.004 223.472 139.777 223.37L136.856 222.234C136.545 222.106 136.197 222.106 135.887 222.235C135.577 222.363 135.331 222.608 135.201 222.918C135.072 223.228 135.07 223.576 135.196 223.887C135.322 224.198 135.567 224.447 135.875 224.578L138.797 225.715L138.805 223.366C138.445 223.477 138.074 223.547 137.698 223.576C137.298 223.623 136.893 223.613 136.495 223.546C136.115 223.503 135.74 223.419 135.378 223.295C135.146 223.215 134.918 223.123 134.695 223.019C134.614 222.982 134.534 222.943 134.455 222.902C134.46 222.905 134.119 222.715 134.269 222.804C133.89 222.571 133.533 222.303 133.203 222.004C133.086 221.897 132.979 221.782 132.881 221.658C132.712 221.458 132.555 221.248 132.411 221.03C132.117 220.567 131.881 220.069 131.71 219.548C131.632 219.329 131.566 219.106 131.511 218.881C131.495 218.757 131.47 218.634 131.437 218.513C131.324 218.226 131.461 218.681 131.339 218.809L130.812 219.212C130.712 219.244 130.606 219.253 130.503 219.238C130.399 219.223 130.3 219.186 130.213 219.127C130.148 219.039 130.162 219.054 130.255 219.171C130.363 219.309 130.463 219.453 130.553 219.604C130.751 219.958 130.931 220.323 131.092 220.696C131.426 221.489 131.843 222.244 132.337 222.948C132.822 223.661 133.518 224.202 134.328 224.496C135.138 224.789 136.02 224.82 136.847 224.582C137.157 224.452 137.404 224.206 137.533 223.896C137.663 223.585 137.666 223.237 137.541 222.924C137.408 222.617 137.161 222.373 136.852 222.244C136.543 222.114 136.196 222.109 135.884 222.23Z" fill="#1F2936"/>
<path d="M153.735 271.278C164.225 266.98 169.242 254.985 164.94 244.486C160.638 233.988 148.647 228.961 138.157 233.26C127.667 237.558 122.65 249.553 126.952 260.052C131.253 270.55 143.245 275.577 153.735 271.278Z" fill="#FFDABF"/>
<path d="M167.876 240.51C166.752 244.13 163.372 245.35 160.242 246.129C159.255 246.378 158.261 246.611 157.259 246.821C156.879 246.363 156.475 245.914 156.055 245.491C154.309 243.721 152.214 242.335 149.903 241.419C150.932 243.432 151.631 245.598 151.973 247.833C150.078 248.142 148.171 248.401 146.253 248.611C144.633 248.986 142.932 248.724 141.499 247.879C140.066 247.034 139.013 245.672 138.555 244.072C136.859 246.965 134.84 249.697 132.032 250.884C130.425 251.494 128.665 251.573 127.01 251.11C125.354 250.646 123.89 249.664 122.833 248.308C121.161 246.094 119.983 243.548 119.38 240.84C118.519 237.667 118.006 234.004 119.545 231.954C120.777 230.295 122.955 230.227 124.967 230.337C129.408 230.598 133.811 231.317 138.106 232.48L138.483 233.287C137.668 228.887 139.183 224.612 142.102 223.05C144.071 222.005 146.466 222.132 148.793 222.296C151.779 222.376 154.739 222.894 157.576 223.834C160.832 225.022 163.643 227.186 165.624 230.033C167.743 233.129 168.846 237.384 167.876 240.51Z" fill="#1F2936"/>
<g filter="url(#filter0_d_1118_27095)">
<rect width="52.0339" height="52.0341" rx="18.5836" transform="matrix(0.440153 0.897923 -0.897925 0.440148 164.216 99.2842)" fill="#F1F4F6"/>
<g clip-path="url(#clip1_1118_27095)">
<path d="M142.012 135.262C141.605 134.432 141.545 133.475 141.844 132.601C142.143 131.726 142.777 131.007 143.607 130.6L148.613 128.146C149.443 127.739 150.4 127.679 151.275 127.978C152.149 128.277 152.869 128.911 153.276 129.741L156.343 135.998C156.75 136.828 156.81 137.786 156.511 138.66C156.212 139.534 155.578 140.254 154.748 140.661L149.742 143.115C148.912 143.521 147.955 143.582 147.08 143.283C146.206 142.984 145.486 142.349 145.08 141.52L142.012 135.262ZM160.927 135.735L157.349 135.201C157.309 135.076 157.259 134.954 157.201 134.835L154.722 129.779C154.663 129.658 154.597 129.544 154.524 129.437L156.292 126.282C156.448 126.005 156.676 125.775 156.952 125.618C157.228 125.462 157.542 125.383 157.86 125.392C158.177 125.401 158.486 125.496 158.754 125.668C159.021 125.839 159.236 126.081 159.376 126.366L162.749 133.246C162.889 133.532 162.947 133.85 162.919 134.166C162.891 134.483 162.777 134.785 162.59 135.042C162.402 135.298 162.148 135.498 161.855 135.62C161.562 135.742 161.241 135.782 160.927 135.735Z" fill="#2E3946"/>
</g>
</g>
<g filter="url(#filter1_d_1118_27095)">
<rect width="52.0341" height="52.0339" rx="18.5836" transform="matrix(0.866027 0.499997 -0.500003 0.866024 171.555 136.003)" fill="#F1F4F6"/>
<g clip-path="url(#clip2_1118_27095)">
<path d="M185.881 179.949L189.714 173.31L175.229 164.947L171.396 171.586C170.934 172.386 170.809 173.337 171.048 174.23C171.287 175.123 171.871 175.884 172.672 176.346L181.121 181.224C181.921 181.686 182.872 181.811 183.765 181.572C184.658 181.333 185.419 180.749 185.881 179.949ZM178.487 170.446C178.349 170.686 178.121 170.861 177.854 170.932C177.586 171.004 177.302 170.966 177.062 170.828C176.822 170.69 176.647 170.462 176.576 170.195C176.504 169.927 176.542 169.643 176.68 169.403C176.818 169.163 177.046 168.989 177.314 168.917C177.581 168.845 177.866 168.883 178.105 169.021C178.345 169.16 178.52 169.387 178.591 169.655C178.663 169.922 178.625 170.207 178.487 170.446ZM176.745 173.464C176.606 173.703 176.379 173.878 176.111 173.95C175.844 174.022 175.559 173.984 175.32 173.846C175.08 173.707 174.905 173.479 174.834 173.212C174.762 172.945 174.8 172.66 174.938 172.421C175.076 172.181 175.304 172.006 175.571 171.935C175.839 171.863 176.123 171.9 176.363 172.039C176.603 172.177 176.777 172.405 176.849 172.672C176.921 172.939 176.883 173.224 176.745 173.464ZM181.809 172.364C181.67 172.604 181.443 172.779 181.175 172.85C180.908 172.922 180.623 172.884 180.384 172.746C180.144 172.608 179.969 172.38 179.898 172.112C179.826 171.845 179.864 171.56 180.002 171.321C180.14 171.081 180.368 170.906 180.635 170.835C180.903 170.763 181.187 170.801 181.427 170.939C181.667 171.077 181.841 171.305 181.913 171.572C181.985 171.84 181.947 172.124 181.809 172.364ZM180.067 175.382C179.928 175.621 179.7 175.796 179.433 175.868C179.166 175.939 178.881 175.902 178.641 175.764C178.402 175.625 178.227 175.397 178.155 175.13C178.084 174.863 178.121 174.578 178.26 174.338C178.398 174.099 178.626 173.924 178.893 173.852C179.16 173.781 179.445 173.818 179.685 173.957C179.924 174.095 180.099 174.323 180.171 174.59C180.242 174.857 180.205 175.142 180.067 175.382ZM185.126 174.279C184.987 174.519 184.76 174.694 184.492 174.765C184.225 174.837 183.94 174.799 183.701 174.661C183.461 174.523 183.286 174.295 183.215 174.027C183.143 173.76 183.18 173.475 183.319 173.236C183.457 172.996 183.685 172.821 183.952 172.75C184.22 172.678 184.504 172.716 184.744 172.854C184.984 172.992 185.158 173.22 185.23 173.487C185.302 173.755 185.264 174.039 185.126 174.279ZM190.759 171.499C191.221 170.699 191.346 169.748 191.107 168.855C190.868 167.963 190.284 167.202 189.484 166.74L181.034 161.861C180.234 161.399 179.283 161.274 178.39 161.513C177.498 161.753 176.736 162.337 176.274 163.137L175.926 163.74L190.41 172.103L190.759 171.499Z" fill="#1F2936"/>
</g>
</g>
<path d="M36.732 251.803C49.7929 255.872 63.6826 248.575 67.7555 235.504C71.8284 222.433 64.5423 208.537 51.4814 204.467C38.4205 200.398 24.5308 207.695 20.4578 220.766C16.3849 233.838 23.6711 247.733 36.732 251.803Z" fill="#8C4E57"/>
<path d="M26.8067 229.416C26.5433 229.225 26.2421 229.093 25.9235 229.029C25.6048 228.965 25.2761 228.97 24.9595 229.044C24.6429 229.118 24.3458 229.259 24.0882 229.457C23.8307 229.656 23.6186 229.908 23.4665 230.195C23.1932 230.798 23.0457 231.45 23.033 232.111C23.0204 232.772 23.1428 233.429 23.3929 234.042C23.8989 235.261 24.3002 236.521 24.5923 237.809C24.7287 238.457 24.6774 239.13 24.4444 239.75C24.2114 240.37 23.8063 240.91 23.2768 241.307C22.7516 241.574 22.1615 241.687 21.5751 241.631C20.9887 241.576 20.4301 241.356 19.9641 240.995C19.0428 240.258 18.3242 239.298 17.876 238.206C14.8845 231.888 12.7075 222.269 16.9703 216.726C17.3707 216.117 17.6642 215.443 17.8381 214.735C18.1306 213.952 18.6522 212.797 17.9867 212.293C16.1294 210.884 25.8168 200.471 35.7105 200.632C36.5716 196.314 60.2507 197.095 57.4251 201.972C56.9176 202.848 59.1829 202.992 60.1309 203.345C67.4043 206.051 75.1798 210.515 71.8321 218.886C70.5357 222.128 72.1482 221.79 72.2709 225.279C70.2335 225.768 68.9694 227.841 68.1124 225.928C67.2554 224.015 66.7095 221.784 65.0073 220.562C63.1949 219.262 60.689 219.582 58.575 220.296C56.4609 221.01 54.3948 222.072 52.164 222.096C49.6621 222.122 47.3432 220.839 44.8805 220.398C41.3183 219.925 37.7056 220.769 34.7197 222.771C31.7694 224.767 29.0727 227.115 26.6891 229.763" fill="#1F2936"/>
<path d="M286.274 103.169C300.842 103.169 312.652 91.3498 312.652 76.77C312.652 62.1902 300.842 50.371 286.274 50.371C271.706 50.371 259.896 62.1902 259.896 76.77C259.896 91.3498 271.706 103.169 286.274 103.169Z" fill="#FFDABF"/>
<path d="M292.058 103.02C288.819 95.7931 306.366 80.7994 295.124 80.0391C295.124 80.0391 287.733 67.0712 283.04 70.5478C277.606 74.5734 269.688 67.262 265.036 62.3703C266.026 61.5711 266.915 60.6532 267.681 59.6373C266.203 59.9089 264.706 60.0659 263.203 60.1069C262.645 59.2811 262.255 58.3536 262.055 57.3772C261.837 56.4533 261.907 55.4848 262.254 54.6016C262.602 53.7184 263.212 52.9629 264.001 52.4366C265.706 51.4857 267.884 52.0664 269.705 51.3844C269.933 51.2734 270.13 51.1088 270.28 50.9047C270.43 50.7006 270.528 50.4631 270.566 50.2127C270.703 49.6233 270.968 49.0713 271.342 48.5961C271.716 48.1208 272.19 47.734 272.731 47.4632C273.272 47.1924 273.865 47.0442 274.47 47.0293C275.074 47.0143 275.674 47.133 276.228 47.3767C276.439 47.4966 276.676 47.5627 276.919 47.569C278.189 47.4882 279.444 47.2562 280.66 46.8782C279.296 46.2399 277.983 45.4987 276.732 44.6608C276.475 44.4861 276.218 44.3114 275.966 44.1265C277.098 43.2056 278.417 42.5404 279.83 42.1764C281.243 41.8125 282.718 41.7584 284.155 42.0178C287.166 42.6042 290.069 43.6531 292.761 45.1273C294.356 45.9052 295.947 46.6813 297.536 47.4555C300.964 48.966 304.224 50.8355 307.259 53.0328C310.426 55.5238 313.004 58.684 314.809 62.2875C316.614 65.8911 317.601 69.8491 317.701 73.8788C317.846 81.9184 310.974 103.95 292.058 103.02Z" fill="#1F2936"/>
</g>
<defs>
<filter id="filter0_d_1118_27095" x="79.1714" y="60.962" width="146.27" height="146.269" filterUnits="userSpaceOnUse" color-interpolation-filters="sRGB">
<feFlood flood-opacity="0" result="BackgroundImageFix"/>
<feColorMatrix in="SourceAlpha" type="matrix" values="0 0 0 0 0 0 0 0 0 0 0 0 0 0 0 0 0 0 127 0" result="hardAlpha"/>
<feOffset/>
<feGaussianBlur stdDeviation="22.3003"/>
<feComposite in2="hardAlpha" operator="out"/>
<feColorMatrix type="matrix" values="0 0 0 0 0.0119854 0 0 0 0 0.457279 0 0 0 0 0.478483 0 0 0 0.32 0"/>
<feBlend mode="normal" in2="BackgroundImageFix" result="effect1_dropShadow_1118_27095"/>
<feBlend mode="normal" in="SourceGraphic" in2="effect1_dropShadow_1118_27095" result="shape"/>
</filter>
<filter id="filter1_d_1118_27095" x="107.736" y="98.2014" width="146.684" height="146.683" filterUnits="userSpaceOnUse" color-interpolation-filters="sRGB">
<feFlood flood-opacity="0" result="BackgroundImageFix"/>
<feColorMatrix in="SourceAlpha" type="matrix" values="0 0 0 0 0 0 0 0 0 0 0 0 0 0 0 0 0 0 127 0" result="hardAlpha"/>
<feOffset/>
<feGaussianBlur stdDeviation="22.3003"/>
<feComposite in2="hardAlpha" operator="out"/>
<feColorMatrix type="matrix" values="0 0 0 0 0.0119854 0 0 0 0 0.457279 0 0 0 0 0.478483 0 0 0 0.32 0"/>
<feBlend mode="normal" in2="BackgroundImageFix" result="effect1_dropShadow_1118_27095"/>
<feBlend mode="normal" in="SourceGraphic" in2="effect1_dropShadow_1118_27095" result="shape"/>
</filter>
<linearGradient id="paint0_linear_1118_27095" x1="160" y1="5.99509" x2="160" y2="315.612" gradientUnits="userSpaceOnUse">
<stop stop-color="#56CBD2"/>
<stop offset="1" stop-color="#4EB7BD"/>
</linearGradient>
<clipPath id="clip0_1118_27095">
<rect width="319.95" height="319.95" fill="white" transform="translate(0.0253906 0.828735)"/>
</clipPath>
<clipPath id="clip1_1118_27095">
<rect width="22.3003" height="22.3003" fill="white" transform="matrix(0.897925 -0.440148 0.440153 0.897923 137.387 128.992)"/>
</clipPath>
<clipPath id="clip2_1118_27095">
<rect width="22.3003" height="22.3003" fill="white" transform="matrix(0.866027 0.499997 -0.500003 0.866024 176.996 156.312)"/>
</clipPath>
</defs>
</svg>
