<svg width="49" height="48" viewBox="0 0 49 48" fill="none" xmlns="http://www.w3.org/2000/svg">
<rect x="0.599976" width="48" height="48" rx="14" fill="#47515C"/>
<path d="M28.6 33V31C28.6 29.9391 28.1785 28.9217 27.4284 28.1716C26.6783 27.4214 25.6608 27 24.6 27H18.6C17.5391 27 16.5217 27.4214 15.7715 28.1716C15.0214 28.9217 14.6 29.9391 14.6 31V33" stroke="#F5F9FA" stroke-width="2" stroke-linecap="round" stroke-linejoin="round"/>
<path d="M21.6 23C23.8091 23 25.6 21.2091 25.6 19C25.6 16.7909 23.8091 15 21.6 15C19.3908 15 17.6 16.7909 17.6 19C17.6 21.2091 19.3908 23 21.6 23Z" stroke="#F5F9FA" stroke-width="2" stroke-linecap="round" stroke-linejoin="round"/>
<path d="M34.6 32.9999V30.9999C34.5993 30.1136 34.3043 29.2527 33.7613 28.5522C33.2184 27.8517 32.4581 27.3515 31.6 27.1299" stroke="#F5F9FA" stroke-width="2" stroke-linecap="round" stroke-linejoin="round"/>
<path d="M28.6 15.1299C29.4604 15.3502 30.223 15.8506 30.7676 16.5522C31.3122 17.2538 31.6078 18.1167 31.6078 19.0049C31.6078 19.8931 31.3122 20.756 30.7676 21.4576C30.223 22.1592 29.4604 22.6596 28.6 22.8799" stroke="#F5F9FA" stroke-width="2" stroke-linecap="round" stroke-linejoin="round"/>
</svg>
