<svg width="25" height="24" viewBox="0 0 25 24" fill="none" xmlns="http://www.w3.org/2000/svg">
<path d="M15.2031 2H6.20312C5.67269 2 5.16398 2.21071 4.78891 2.58579C4.41384 2.96086 4.20313 3.46957 4.20312 4V20C4.20313 20.5304 4.41384 21.0391 4.78891 21.4142C5.16398 21.7893 5.67269 22 6.20312 22H18.2031C18.7336 22 19.2423 21.7893 19.6173 21.4142C19.9924 21.0391 20.2031 20.5304 20.2031 20V7L15.2031 2Z" stroke="#9AA6B6" stroke-width="2" stroke-linecap="round" stroke-linejoin="round"/>
<path d="M14.2031 2V6C14.2031 6.53043 14.4138 7.03914 14.7889 7.41421C15.164 7.78929 15.6727 8 16.2031 8H20.2031" stroke="#9AA6B6" stroke-width="2" stroke-linecap="round" stroke-linejoin="round"/>
<path d="M10.2031 9H8.20312" stroke="#9AA6B6" stroke-width="2" stroke-linecap="round" stroke-linejoin="round"/>
<path d="M16.2031 13H8.20312" stroke="#9AA6B6" stroke-width="2" stroke-linecap="round" stroke-linejoin="round"/>
<path d="M16.2031 17H8.20312" stroke="#9AA6B6" stroke-width="2" stroke-linecap="round" stroke-linejoin="round"/>
</svg>
