<svg width="25" height="24" viewBox="0 0 25 24" fill="none" xmlns="http://www.w3.org/2000/svg">
<path d="M15.4031 3C15.9307 3.00751 16.4339 3.22317 16.8031 3.6L20.6031 7.4C20.98 7.76926 21.1956 8.27246 21.2031 8.8V19C21.2031 19.5304 20.9924 20.0391 20.6173 20.4142C20.2423 20.7893 19.7336 21 19.2031 21H5.20312C4.67269 21 4.16398 20.7893 3.78891 20.4142C3.41384 20.0391 3.20313 19.5304 3.20312 19V5C3.20312 4.46957 3.41384 3.96086 3.78891 3.58579C4.16398 3.21071 4.67269 3 5.20312 3H15.4031Z" stroke="#F5F9FA" stroke-width="2" stroke-linecap="round" stroke-linejoin="round"/>
<path d="M17.2031 21V14C17.2031 13.7348 17.0978 13.4804 16.9102 13.2929C16.7227 13.1054 16.4683 13 16.2031 13H8.20312C7.93791 13 7.68355 13.1054 7.49602 13.2929C7.30848 13.4804 7.20312 13.7348 7.20312 14V21" stroke="#F5F9FA" stroke-width="2" stroke-linecap="round" stroke-linejoin="round"/>
<path d="M7.20312 3V7C7.20312 7.26522 7.30848 7.51957 7.49602 7.70711C7.68355 7.89464 7.93791 8 8.20312 8H15.2031" stroke="#F5F9FA" stroke-width="2" stroke-linecap="round" stroke-linejoin="round"/>
</svg>
