<svg width="48" height="48" viewBox="0 0 48 48" fill="none" xmlns="http://www.w3.org/2000/svg">
<rect width="48" height="48" rx="24" fill="#4EB7BD"/>
<path d="M26.536 33.6861C26.574 33.7807 26.64 33.8615 26.7253 33.9176C26.8105 33.9737 26.9108 34.0023 27.0128 33.9997C27.1148 33.9971 27.2136 33.9633 27.2958 33.903C27.3781 33.8426 27.4399 33.7586 27.473 33.6621L33.973 14.6621C34.005 14.5734 34.0111 14.4776 33.9906 14.3856C33.9701 14.2937 33.9238 14.2094 33.8572 14.1428C33.7906 14.0762 33.7064 14.03 33.6144 14.0094C33.5225 13.9889 33.4266 13.9951 33.338 14.0271L14.338 20.5271C14.2415 20.5602 14.1574 20.622 14.0971 20.7042C14.0367 20.7865 14.003 20.8852 14.0003 20.9872C13.9977 21.0892 14.0264 21.1895 14.0824 21.2748C14.1385 21.36 14.2193 21.4261 14.314 21.4641L22.244 24.6441C22.4947 24.7444 22.7224 24.8945 22.9136 25.0853C23.1047 25.2761 23.2552 25.5036 23.356 25.7541L26.536 33.6861Z" stroke="#DCF1F2" stroke-width="2" stroke-linecap="round" stroke-linejoin="round"/>
<path d="M33.854 14.147L22.914 25.086" stroke="#DCF1F2" stroke-width="2" stroke-linecap="round" stroke-linejoin="round"/>
</svg>
