<svg width="25" height="25" viewBox="0 0 25 25" fill="none" xmlns="http://www.w3.org/2000/svg">
<path d="M12.3865 2.5H11.9465C11.4161 2.5 10.9074 2.71071 10.5323 3.08579C10.1572 3.46086 9.94651 3.96957 9.94651 4.5V4.68C9.94615 5.03073 9.85356 5.37519 9.67804 5.67884C9.50253 5.98248 9.25024 6.23464 8.94651 6.41L8.51651 6.66C8.21247 6.83554 7.86758 6.92795 7.51651 6.92795C7.16543 6.92795 6.82054 6.83554 6.51651 6.66L6.36651 6.58C5.90757 6.31526 5.36234 6.24344 4.85051 6.38031C4.33867 6.51717 3.90206 6.85154 3.63651 7.31L3.41651 7.69C3.15177 8.14893 3.07995 8.69416 3.21681 9.206C3.35368 9.71783 3.68804 10.1544 4.14651 10.42L4.29651 10.52C4.59878 10.6945 4.85013 10.9451 5.02556 11.2468C5.20099 11.5486 5.2944 11.891 5.29651 12.24V12.75C5.29791 13.1024 5.20616 13.449 5.03055 13.7545C4.85494 14.0601 4.60171 14.3138 4.29651 14.49L4.14651 14.58C3.68804 14.8456 3.35368 15.2822 3.21681 15.794C3.07995 16.3058 3.15177 16.8511 3.41651 17.31L3.63651 17.69C3.90206 18.1485 4.33867 18.4828 4.85051 18.6197C5.36234 18.7566 5.90757 18.6847 6.36651 18.42L6.51651 18.34C6.82054 18.1645 7.16543 18.0721 7.51651 18.0721C7.86758 18.0721 8.21247 18.1645 8.51651 18.34L8.94651 18.59C9.25024 18.7654 9.50253 19.0175 9.67804 19.3212C9.85356 19.6248 9.94615 19.9693 9.94651 20.32V20.5C9.94651 21.0304 10.1572 21.5391 10.5323 21.9142C10.9074 22.2893 11.4161 22.5 11.9465 22.5H12.3865C12.9169 22.5 13.4256 22.2893 13.8007 21.9142C14.1758 21.5391 14.3865 21.0304 14.3865 20.5V20.32C14.3869 19.9693 14.4794 19.6248 14.655 19.3212C14.8305 19.0175 15.0828 18.7654 15.3865 18.59L15.8165 18.34C16.1205 18.1645 16.4654 18.0721 16.8165 18.0721C17.1676 18.0721 17.5125 18.1645 17.8165 18.34L17.9665 18.42C18.4254 18.6847 18.9707 18.7566 19.4825 18.6197C19.9943 18.4828 20.431 18.1485 20.6965 17.69L20.9165 17.3C21.1812 16.8411 21.2531 16.2958 21.1162 15.784C20.9793 15.2722 20.645 14.8356 20.1865 14.57L20.0365 14.49C19.7313 14.3138 19.4781 14.0601 19.3025 13.7545C19.1269 13.449 19.0351 13.1024 19.0365 12.75V12.25C19.0351 11.8976 19.1269 11.551 19.3025 11.2455C19.4781 10.9399 19.7313 10.6862 20.0365 10.51L20.1865 10.42C20.645 10.1544 20.9793 9.71783 21.1162 9.206C21.2531 8.69416 21.1812 8.14893 20.9165 7.69L20.6965 7.31C20.431 6.85154 19.9943 6.51717 19.4825 6.38031C18.9707 6.24344 18.4254 6.31526 17.9665 6.58L17.8165 6.66C17.5125 6.83554 17.1676 6.92795 16.8165 6.92795C16.4654 6.92795 16.1205 6.83554 15.8165 6.66L15.3865 6.41C15.0828 6.23464 14.8305 5.98248 14.655 5.67884C14.4794 5.37519 14.3869 5.03073 14.3865 4.68V4.5C14.3865 3.96957 14.1758 3.46086 13.8007 3.08579C13.4256 2.71071 12.9169 2.5 12.3865 2.5Z" stroke="" stroke-width="2" stroke-linecap="round" stroke-linejoin="round"/>
<path d="M12.1665 15.5C13.8234 15.5 15.1665 14.1569 15.1665 12.5C15.1665 10.8431 13.8234 9.5 12.1665 9.5C10.5096 9.5 9.1665 10.8431 9.1665 12.5C9.1665 14.1569 10.5096 15.5 12.1665 15.5Z" stroke="" stroke-width="2" stroke-linecap="round" stroke-linejoin="round"/>
</svg>
