<svg width="41" height="40" viewBox="0 0 41 40" fill="none" xmlns="http://www.w3.org/2000/svg">
<circle cx="20.2031" cy="20" r="20" fill="#E9F5F6"/>
<path d="M20 30.6C19.3373 30.6 18.8 30.0627 18.8 29.4C18.8 28.7373 19.3373 28.2 20 28.2H28.4V19.68C28.4 17.34 27.5852 15.3552 25.9556 13.7256C24.326 12.096 22.3408 11.2808 20 11.28C17.6592 11.2792 15.6744 12.0944 14.0456 13.7256C12.4168 15.3568 11.6016 17.3416 11.6 19.68V25.8C11.6 26.4627 11.0627 27 10.4 27C9.74 27 9.1752 26.7652 8.7056 26.2956C8.236 25.826 8.0008 25.2608 8 24.6V22.2C8 21.78 8.1052 21.3852 8.3156 21.0156C8.526 20.646 8.8208 20.3508 9.2 20.13L9.29 18.54C9.45 17.18 9.8452 15.92 10.4756 14.76C11.106 13.6 11.896 12.59 12.8456 11.73C13.7952 10.87 14.8848 10.2 16.1144 9.72C17.344 9.24 18.6392 9 20 9C21.3608 9 22.6508 9.24 23.87 9.72C25.0892 10.2 26.1792 10.8652 27.14 11.7156C28.1008 12.566 28.8908 13.5708 29.51 14.73C30.1292 15.8892 30.5292 17.1492 30.71 18.51L30.8 20.07C31.18 20.25 31.4752 20.52 31.6856 20.88C31.896 21.24 32.0008 21.62 32 22.02V24.78C32 25.18 31.8952 25.56 31.6856 25.92C31.476 26.28 31.1808 26.55 30.8 26.73V28.2C30.8 28.86 30.5652 29.4252 30.0956 29.8956C29.626 30.366 29.0608 30.6008 28.4 30.6H20ZM16.4 22.2C16.06 22.2 15.7752 22.0848 15.5456 21.8544C15.316 21.624 15.2008 21.3392 15.2 21C15.1992 20.6608 15.3144 20.376 15.5456 20.1456C15.7768 19.9152 16.0616 19.8 16.4 19.8C16.7384 19.8 17.0236 19.9152 17.2556 20.1456C17.4876 20.376 17.6024 20.6608 17.6 21C17.5976 21.3392 17.4824 21.6244 17.2544 21.8556C17.0264 22.0868 16.7416 22.2016 16.4 22.2ZM23.6 22.2C23.26 22.2 22.9752 22.0848 22.7456 21.8544C22.516 21.624 22.4008 21.3392 22.4 21C22.3992 20.6608 22.5144 20.376 22.7456 20.1456C22.9768 19.9152 23.2616 19.8 23.6 19.8C23.9384 19.8 24.2236 19.9152 24.4556 20.1456C24.6876 20.376 24.8024 20.6608 24.8 21C24.7976 21.3392 24.6824 21.6244 24.4544 21.8556C24.2264 22.0868 23.9416 22.2016 23.6 22.2ZM13.5886 19.9899C13.2234 20.1773 12.8019 19.9149 12.8157 19.5047C12.8753 17.7381 13.5201 16.1965 14.75 14.88C16.17 13.36 17.94 12.6 20.06 12.6C21.84 12.6 23.4052 13.1648 24.7556 14.2944C25.9237 15.2715 26.691 16.485 27.0576 17.935C27.1487 18.2952 26.8605 18.6287 26.4901 18.5987C24.9424 18.4734 23.5042 17.9939 22.1756 17.16C20.646 16.2 19.4708 14.9 18.65 13.26C18.33 14.86 17.6552 16.2852 16.6256 17.5356C15.7743 18.5694 14.762 19.3875 13.5886 19.9899Z" fill="#9BD6D9"/>
</svg>
