<svg width="32" height="32" viewBox="0 0 32 32" fill="none" xmlns="http://www.w3.org/2000/svg">
<path d="M19.4456 4.11707C18.997 3.65795 18.4611 3.29314 17.8695 3.04407C17.2778 2.79499 16.6424 2.66669 16.0005 2.66669C15.3585 2.66669 14.7231 2.79499 14.1315 3.04407C13.5398 3.29314 13.004 3.65795 12.5553 4.11707L11.5186 5.18044L10.0352 5.16211C9.39313 5.15451 8.75599 5.27538 8.16127 5.5176C7.56656 5.75983 7.02628 6.11852 6.57221 6.57259C6.11814 7.02666 5.75944 7.56694 5.51722 8.16166C5.27499 8.75637 5.15412 9.39352 5.16172 10.0356L5.17839 11.519L4.11835 12.5557C3.65923 13.0044 3.29442 13.5402 3.04535 14.1319C2.79627 14.7235 2.66797 15.3589 2.66797 16.0009C2.66797 16.6428 2.79627 17.2782 3.04535 17.8698C3.29442 18.4615 3.65923 18.9974 4.11835 19.446L5.18006 20.4827L5.16172 21.9661C5.15412 22.6082 5.27499 23.2453 5.51722 23.8401C5.75944 24.4348 6.11814 24.975 6.57221 25.4291C7.02628 25.8832 7.56656 26.2419 8.16127 26.4841C8.75599 26.7263 9.39313 26.8472 10.0352 26.8396L11.5186 26.8229L12.5553 27.883C13.004 28.3421 13.5398 28.7069 14.1315 28.956C14.7231 29.205 15.3585 29.3334 16.0005 29.3334C16.6424 29.3334 17.2778 29.205 17.8695 28.956C18.4611 28.7069 18.997 28.3421 19.4456 27.883L20.4823 26.8213L21.9657 26.8396C22.6078 26.8472 23.2449 26.7263 23.8397 26.4841C24.4344 26.2419 24.9747 25.8832 25.4287 25.4291C25.8828 24.975 26.2415 24.4348 26.4837 23.8401C26.7259 23.2453 26.8468 22.6082 26.8392 21.9661L26.8225 20.4827L27.8826 19.446C28.3417 18.9974 28.7065 18.4615 28.9556 17.8698C29.2047 17.2782 29.333 16.6428 29.333 16.0009C29.333 15.3589 29.2047 14.7235 28.9556 14.1319C28.7065 13.5402 28.3417 13.0044 27.8826 12.5557L26.8209 11.519L26.8392 10.0356C26.8468 9.39352 26.7259 8.75637 26.4837 8.16166C26.2415 7.56694 25.8828 7.02666 25.4287 6.57259C24.9747 6.11852 24.4344 5.75983 23.8397 5.5176C23.2449 5.27538 22.6078 5.15451 21.9657 5.16211L20.4823 5.17878L19.4456 4.11707ZM19.924 14.0908L14.9238 19.091C14.8463 19.1686 14.7544 19.2302 14.6531 19.2722C14.5519 19.3142 14.4434 19.3358 14.3337 19.3358C14.2241 19.3358 14.1156 19.3142 14.0143 19.2722C13.9131 19.2302 13.8211 19.1686 13.7437 19.091L11.2436 16.5909C11.1661 16.5134 11.1047 16.4214 11.0627 16.3202C11.0208 16.2189 10.9992 16.1104 10.9992 16.0009C10.9992 15.8913 11.0208 15.7828 11.0627 15.6815C11.1047 15.5803 11.1661 15.4883 11.2436 15.4108C11.3211 15.3333 11.4131 15.2719 11.5143 15.23C11.6156 15.188 11.7241 15.1664 11.8336 15.1664C11.9432 15.1664 12.0517 15.188 12.153 15.23C12.2542 15.2719 12.3462 15.3333 12.4237 15.4108L14.3337 17.3226L18.7439 12.9107C18.9004 12.7543 19.1126 12.6663 19.3339 12.6663C19.5552 12.6663 19.7675 12.7543 19.924 12.9107C20.0804 13.0672 20.1683 13.2795 20.1683 13.5008C20.1683 13.7221 20.0804 13.9343 19.924 14.0908Z" fill="#5EC18E"/>
<path d="M19.924 14.0908L14.9238 19.091C14.8463 19.1686 14.7544 19.2302 14.6531 19.2722C14.5519 19.3142 14.4434 19.3358 14.3337 19.3358C14.2241 19.3358 14.1156 19.3142 14.0143 19.2722C13.9131 19.2302 13.8211 19.1686 13.7437 19.091L11.2436 16.5909C11.1661 16.5134 11.1047 16.4214 11.0627 16.3202C11.0208 16.2189 10.9992 16.1104 10.9992 16.0009C10.9992 15.8913 11.0208 15.7828 11.0627 15.6815C11.1047 15.5803 11.1661 15.4883 11.2436 15.4108C11.3211 15.3333 11.4131 15.2719 11.5143 15.23C11.6156 15.188 11.7241 15.1664 11.8336 15.1664C11.9432 15.1664 12.0517 15.188 12.153 15.23C12.2542 15.2719 12.3462 15.3333 12.4237 15.4108L14.3337 17.3226L18.7439 12.9107C18.9004 12.7543 19.1126 12.6663 19.3339 12.6663C19.5552 12.6663 19.7675 12.7543 19.924 12.9107C20.0804 13.0672 20.1683 13.2795 20.1683 13.5008C20.1683 13.7221 20.0804 13.9343 19.924 14.0908Z" fill="#5EC18E"/>
<path fill-rule="evenodd" clip-rule="evenodd" d="M21.6583 11.64C21.9187 11.9004 21.9187 12.3225 21.6583 12.5829L14.5284 19.7128C14.268 19.9731 13.8459 19.9731 13.5855 19.7128L10.3447 16.4719C10.0843 16.2116 10.0843 15.7894 10.3447 15.5291C10.605 15.2687 11.0272 15.2687 11.2875 15.5291L14.057 18.2985L20.7154 11.64C20.9758 11.3797 21.3979 11.3797 21.6583 11.64Z" fill="white"/>
</svg>
