<svg width="30" height="30" viewBox="0 0 30 30" fill="none" xmlns="http://www.w3.org/2000/svg">
<path d="M14.7094 29.7107C22.7183 29.7107 29.2108 23.2183 29.2108 15.2094C29.2108 7.20048 22.7183 0.707993 14.7094 0.707993C6.70049 0.707993 0.208008 7.20048 0.208008 15.2094C0.208008 23.2183 6.70049 29.7107 14.7094 29.7107Z" fill="#E44E58"/>
<path d="M18.2669 17.9171L12.0018 11.652C11.7672 11.4175 11.3869 11.4175 11.1523 11.652C10.9177 11.8866 10.9177 12.267 11.1523 12.5015L17.4174 18.7666C17.6519 19.0012 18.0323 19.0012 18.2669 18.7666C18.5015 18.532 18.5015 18.1517 18.2669 17.9171Z" fill="white"/>
<path d="M12.0015 18.7666L18.2665 12.5016C18.5011 12.267 18.5011 11.8866 18.2665 11.652C18.032 11.4175 17.6516 11.4175 17.417 11.652L11.152 17.9171C10.9174 18.1517 10.9174 18.5321 11.152 18.7666C11.3866 19.0012 11.7669 19.0012 12.0015 18.7666Z" fill="white"/>
</svg>
