<svg width="18" height="17" viewBox="0 0 18 17" fill="none" xmlns="http://www.w3.org/2000/svg">
<path d="M8.99935 0.166504C4.40438 0.166504 0.666016 3.90487 0.666016 8.49984C0.666016 13.0948 4.40438 16.8332 8.99935 16.8332C13.5943 16.8332 17.3327 13.0948 17.3327 8.49984C17.3327 3.90487 13.5943 0.166504 8.99935 0.166504ZM8.99935 1.4165C12.9188 1.4165 16.0827 4.58042 16.0827 8.49984C16.0827 12.4193 12.9188 15.5832 8.99935 15.5832C5.07993 15.5832 1.91602 12.4193 1.91602 8.49984C1.91602 4.58042 5.07993 1.4165 8.99935 1.4165ZM8.96517 4.33398C8.81997 4.34203 8.68212 4.40045 8.57536 4.49919L5.86702 6.99919C5.80425 7.05419 5.75313 7.12122 5.71668 7.1963C5.68023 7.27138 5.65918 7.353 5.65479 7.43635C5.65039 7.5197 5.66273 7.60308 5.69107 7.68158C5.71942 7.76009 5.7632 7.83212 5.81984 7.89342C5.87647 7.95473 5.94481 8.00408 6.02082 8.03855C6.09684 8.07302 6.17898 8.09192 6.26242 8.09413C6.34585 8.09634 6.42888 8.08182 6.50661 8.05143C6.58435 8.02103 6.6552 7.97538 6.71501 7.91715L8.37435 6.38558V12.0415C8.37318 12.1243 8.38848 12.2066 8.41936 12.2834C8.45025 12.3603 8.4961 12.4302 8.55425 12.4892C8.6124 12.5482 8.6817 12.595 8.75811 12.627C8.83452 12.6589 8.91652 12.6754 8.99935 12.6754C9.08218 12.6754 9.16418 12.6589 9.24059 12.627C9.317 12.595 9.3863 12.5482 9.44445 12.4892C9.5026 12.4302 9.54845 12.3603 9.57934 12.2834C9.61022 12.2066 9.62552 12.1243 9.62435 12.0415V6.38558L11.2837 7.91715C11.3435 7.97538 11.4144 8.02103 11.4921 8.05143C11.5698 8.08182 11.6528 8.09634 11.7363 8.09413C11.8197 8.09192 11.9019 8.07302 11.9779 8.03855C12.0539 8.00408 12.1222 7.95473 12.1789 7.89342C12.2355 7.83212 12.2793 7.76009 12.3076 7.68158C12.336 7.60308 12.3483 7.5197 12.3439 7.43635C12.3395 7.353 12.3185 7.27138 12.282 7.1963C12.2456 7.12122 12.1944 7.05419 12.1317 6.99919L9.42334 4.49919C9.36191 4.44239 9.28971 4.3985 9.21101 4.37012C9.13231 4.34175 9.04871 4.32946 8.96517 4.33398Z" fill="white"/>
</svg>
